<svg xmlns="http://www.w3.org/2000/svg" width="18.618" height="22.842" viewBox="0 0 18.618 22.842">
  <path id="choose_address" d="M13.309,2A9.309,9.309,0,0,0,4,11.309c0,6.122,6.053,9.053,6.811,9.735a7.855,7.855,0,0,1,1.671,3.142.849.849,0,0,0,1.653,0,7.86,7.86,0,0,1,1.671-3.142c.758-.682,6.811-3.613,6.811-9.735A9.309,9.309,0,0,0,13.309,2Zm0,5.077a.42.42,0,0,1,.253.084L16.948,9.7a.423.423,0,0,1-.255.762v4.231H14.155V12.155H12.463v2.539H9.924V10.454a.413.413,0,0,1-.339-.16A.425.425,0,0,1,9.671,9.7l3.385-2.539A.425.425,0,0,1,13.31,7.077Z" transform="translate(-4 -2)" fill="#fff"/>
</svg>
