<svg xmlns="http://www.w3.org/2000/svg" width="19.173" height="16.901" viewBox="0 0 19.173 16.901">
  <path id="fave_outlined" d="M9.06,15.9a.818.818,0,0,1-.619-.31A55.408,55.408,0,0,0,3.279,11C1.533,9.425,0,7.56,0,5.06A5.038,5.038,0,0,1,1.419,1.394,5.141,5.141,0,0,1,5.06,0,5.278,5.278,0,0,1,8.441,1.472a4.2,4.2,0,0,1,.645.7,4.323,4.323,0,0,1,.645-.7A5.286,5.286,0,0,1,13.113,0a5.078,5.078,0,0,1,3.614,1.394A5.056,5.056,0,0,1,18.173,5.06c0,2.5-1.533,4.365-3.279,5.936a55.293,55.293,0,0,0-5.162,4.6.821.821,0,0,1-.619.31Z" transform="translate(0.5 0.5)" fill="#fe0248" stroke="#fff" stroke-width="1"/>
</svg>
