<svg id="halal" xmlns="http://www.w3.org/2000/svg" width="13.001" height="13.002" viewBox="0 0 13.001 13.002">
  <path id="icons8_halal_sign" d="M10.5,4A6.5,6.5,0,1,0,17,10.5,6.5,6.5,0,0,0,10.5,4ZM8.063,6.273a1.241,1.241,0,0,0,.325.813c-.325.325,0,2.763,0,3.413a1.433,1.433,0,0,1-1.463,1.3c-.813,0-1.463-.325-1.463-.975a1.689,1.689,0,0,1,.65-1.3c-.813,1.625.488,1.625.65,1.625s1.3,0,1.3-.65a16.371,16.371,0,0,0-.325-3.088A1,1,0,0,1,8.063,6.273Zm3.088.975a9.5,9.5,0,0,1,.325,2.925.744.744,0,0,0,.65.813,2.326,2.326,0,0,0,1.625-.488,3.3,3.3,0,0,0-1-.257.85.85,0,0,0-.629.257,1.207,1.207,0,0,1,.975-.975,3.1,3.1,0,0,1,1.625.813h.65l-.325.65H14.4a6.394,6.394,0,0,1-2.113.65A1.015,1.015,0,0,1,11.151,10.5V8.711S11,11.8,8.272,11.8c-.068,0-.138,0-.209-.006C9.363,11.311,10.663,10.986,11.151,7.248Zm-2.6.488a2.317,2.317,0,0,1,1.3,2.275c0-.975-1.3-1.463-1.3-1.463ZM6.6,12.448h.366V13.1h.673v-.649h.368v1.626H7.639v-.661H6.966v.661H6.6Zm2.359,0h.434l.578,1.626h-.4l-.116-.361H8.879l-.115.361h-.4Zm1.379,0H10.7v1.329h.6v.3h-.968Zm1.77,0h.434l.578,1.626h-.4l-.116-.361h-.578l-.114.361h-.4Zm1.318,0h.366v1.329h.6v.3h-.968Zm-4.264.29a.639.639,0,0,1-.028.142l-.177.551h.416L9.2,12.885a.693.693,0,0,1-.027-.146Zm3.149,0a.64.64,0,0,1-.029.142l-.176.551h.416l-.175-.547a.693.693,0,0,1-.027-.146Z" transform="translate(-4 -3.998)" fill="#5b5b5b"/>
</svg>
