<svg xmlns="http://www.w3.org/2000/svg" width="14.296" height="14.977" viewBox="0 0 14.296 14.977">
  <path id="kitchens_tab_icon" d="M5.021,3a.34.34,0,0,0-.34.34V4.362H17.615V3.34a.34.34,0,0,0-.34-.34Zm-.34,2.042S4,7.333,4,7.425a1.021,1.021,0,0,0,2.042,0,1.021,1.021,0,0,0,2.042,0,1.021,1.021,0,0,0,2.042,0,1.021,1.021,0,1,0,2.042,0,1.021,1.021,0,0,0,2.042,0,1.021,1.021,0,0,0,2.042,0,1.021,1.021,0,1,0,2.042,0c0-.092-.681-2.383-.681-2.383ZM4.34,8.987v5.926a1.024,1.024,0,0,0,1.021,1.021,2.1,2.1,0,0,0,.511,1.4,2.01,2.01,0,0,0,1.531.646,2.047,2.047,0,0,0,2.042-2.042h6.127v.772a.68.68,0,1,0,.681,0v-.772h.681a1.024,1.024,0,0,0,1.021-1.021V8.987a1.738,1.738,0,0,1-.681.14v2.383H5.021V9.127A1.738,1.738,0,0,1,4.34,8.987ZM7.4,14.573a1.362,1.362,0,0,1,0,2.723,1.284,1.284,0,0,1-1.022-.418,1.482,1.482,0,0,1,0-1.888A1.284,1.284,0,0,1,7.4,14.573Z" transform="translate(-4 -3)" fill="#707070"/>
</svg>
