<svg xmlns="http://www.w3.org/2000/svg" width="29.157" height="26.934" viewBox="0 0 29.157 26.934">
  <path id="icons8_kitchen" d="M15.16,1.971l2.24.28a2.263,2.263,0,0,1,1.925,2.52l-.105.77L22.58,6a2.752,2.752,0,0,1,2.03,1.4,2.78,2.78,0,0,0,2.065,1.4,1.131,1.131,0,0,1-.315,2.24L4.17,8.061a1.12,1.12,0,1,1,.28-2.205,2.74,2.74,0,0,0,2.345-.805,2.8,2.8,0,0,1,2.345-.84l3.4.455.1-.77A2.263,2.263,0,0,1,15.16,1.971Zm-.28,2.205-.1.77,2.2.315.105-.77Zm11.1,7.91a1.125,1.125,0,1,1-.21,2.24v3.185a2.108,2.108,0,0,0,.735-.56,1.875,1.875,0,0,0,.42-.7,1.122,1.122,0,0,1,1.33-.805,1.118,1.118,0,0,1,.84,1.435,4.53,4.53,0,0,1-.91,1.54,4.63,4.63,0,0,1-2.415,1.365v6.86a2.239,2.239,0,0,1-2.24,2.24H5.6a2.239,2.239,0,0,1-2.24-2.24v-6.86A4.63,4.63,0,0,1,.95,18.421a4.531,4.531,0,0,1-.91-1.54,1.122,1.122,0,0,1,1.33-1.435,1.13,1.13,0,0,1,.84.805,1.876,1.876,0,0,0,.42.7,2.108,2.108,0,0,0,.735.56V14.326a1.12,1.12,0,1,1,0-2.24h22.61Z" transform="translate(0.015 -1.952)" fill="#afafaf"/>
</svg>
