<svg id="large_address_icon" xmlns="http://www.w3.org/2000/svg" width="24.823" height="30.455" viewBox="0 0 24.823 30.455">
  <path id="icons8_home_address" d="M16.411,2A12.411,12.411,0,0,0,4,14.411c0,8.162,8.07,12.07,9.081,12.98a10.473,10.473,0,0,1,2.228,4.189,1.131,1.131,0,0,0,2.2,0,10.48,10.48,0,0,1,2.228-4.189c1.011-.909,9.081-4.818,9.081-12.98A12.411,12.411,0,0,0,16.411,2Zm0,6.77a.561.561,0,0,1,.337.112l4.513,3.385a.564.564,0,0,1-.339,1.016v5.641H17.54V15.539H15.283v3.385H11.9V13.272a.551.551,0,0,1-.452-.214.567.567,0,0,1,.115-.791l4.513-3.385A.567.567,0,0,1,16.414,8.77Z" transform="translate(-4 -2)" fill="#fff"/>
</svg>
