<svg xmlns="http://www.w3.org/2000/svg" width="9.055" height="14.715" viewBox="0 0 9.055 14.715">
  <path id="listing_tab_icon" d="M5.566,0S5,3.962,5,4.528s1.273,1.7,1.273,1.7l-.141,7.552c0,.626.506.937,1.132.937S8.4,14.4,8.4,13.778L8.254,6.226s1.273-1.156,1.273-1.7S8.962,0,8.962,0H8.4V3.679a.283.283,0,1,1-.566,0C7.83,3.626,7.635,0,7.635,0H6.892S6.7,3.626,6.7,3.679a.283.283,0,1,1-.566,0V0Zm7.923.035c-.626,0-2.264,1.528-2.264,3.378,0,3.024,1.15,3.86,1.15,4.51,0,1.441-.566,2.976-.566,5.854,0,.623.489.937,1.114.937s1.132-.312,1.132-.937V.867C14.055.416,13.958.035,13.489.035Z" transform="translate(-5)" fill="#707070"/>
</svg>
