<svg xmlns="http://www.w3.org/2000/svg" width="26.265" height="26.265" viewBox="0 0 26.265 26.265">
  <path id="location_icon_cross" d="M14.632,9.857a4.775,4.775,0,1,0,4.775,4.775A4.774,4.774,0,0,0,14.632,9.857Zm10.673,3.582a10.738,10.738,0,0,0-9.479-9.479V1.5H13.438V3.959a10.738,10.738,0,0,0-9.479,9.479H1.5v2.388H3.959a10.738,10.738,0,0,0,9.479,9.479v2.459h2.388V25.305a10.738,10.738,0,0,0,9.479-9.479h2.459V13.438ZM14.632,22.989a8.357,8.357,0,1,1,8.357-8.357A8.351,8.351,0,0,1,14.632,22.989Z" transform="translate(-1.5 -1.5)" fill="#ec0e4d"/>
</svg>
