<svg id="spicy" xmlns="http://www.w3.org/2000/svg" width="11.85" height="11.849" viewBox="0 0 11.85 11.849">
  <path id="Icon_awesome-pepper-hot" data-name="Icon awesome-pepper-hot" d="M7.653,6.091V4.014L6.432,3.454c-1.353,1.61-1.859,5.8-5.136,5.8a1.3,1.3,0,1,0,0,2.592c4.921,0,8.578-2.844,9.7-4.868l-.857-.892ZM10.687,3.12A2.735,2.735,0,0,0,10.614.07a.185.185,0,0,0-.276-.014l-.53.532a.187.187,0,0,0-.021.237A1.623,1.623,0,0,1,9.755,2.5a3.269,3.269,0,0,0-3.09.246l1.728.794V5.35h2.062l1.265,1.316a3.616,3.616,0,0,0,.129-.91A3.564,3.564,0,0,0,10.687,3.12Z" transform="translate(0 -0.001)" fill="#f20101"/>
</svg>
