<svg id="vegan_food" xmlns="http://www.w3.org/2000/svg" width="11.952" height="11.947" viewBox="0 0 11.952 11.947">
  <path id="icons8_vegan_food_1" d="M8.99,2.011A3.552,3.552,0,0,0,6.71,3.138,2.49,2.49,0,0,0,6.01,4.3,7.028,7.028,0,0,0,4.068,5.379a.5.5,0,1,0,.656.75,5.834,5.834,0,0,1,1.913-.995l.049-.015a17.644,17.644,0,0,1,2.968-.436.5.5,0,0,1,0,1,7.268,7.268,0,0,0-3.181.7,5.107,5.107,0,0,0,.386.431c1.056,1.056,3.986.829,5.634-.7L13.55,5.05,12.194,3.558A4.409,4.409,0,0,0,8.99,2.011ZM3.5,8.476a.5.5,0,1,0,0,1A3.981,3.981,0,0,0,6.056,13.19a.5.5,0,0,0,.428.763h4.979a.5.5,0,0,0,.426-.765,3.982,3.982,0,0,0,2.558-3.716h0a.5.5,0,1,0,0-1Z" transform="translate(-2.996 -2.007)" fill="#39c37c"/>
</svg>
