<svg xmlns="http://www.w3.org/2000/svg" width="14.776" height="12.503" viewBox="0 0 14.776 12.503">
  <path id="icons8_restaurant_menu" d="M3.137,5A1.136,1.136,0,0,0,2,6.137V15.23a1.136,1.136,0,0,0,1.137,1.137H7.683A1.136,1.136,0,0,1,8.82,17.5V6.137A1.136,1.136,0,0,0,7.683,5Zm7.956,0A1.136,1.136,0,0,0,9.956,6.137V17.5a1.136,1.136,0,0,1,1.137-1.137H15.64a1.136,1.136,0,0,0,1.137-1.137V6.137A1.136,1.136,0,0,0,15.64,5ZM5.41,6.137a2.191,2.191,0,0,1,1.7,2.217c0,1.534-1.364,1.522-1.364,2.174,0,.559.228,3.95.228,4.134a.568.568,0,0,1-1.137,0c0-.184.228-3.574.228-4.134,0-.652-1.364-.64-1.364-2.174A2.191,2.191,0,0,1,5.41,6.137Zm6.251,1.7h3.41a.568.568,0,1,1,0,1.137h-3.41a.568.568,0,0,1,0-1.137Zm0,2.273h2.273a.568.568,0,0,1,0,1.137H11.661a.568.568,0,1,1,0-1.137Zm0,2.273h3.41a.568.568,0,1,1,0,1.137h-3.41a.568.568,0,0,1,0-1.137Z" transform="translate(-2 -5)" fill="#eb0e4c"/>
</svg>
