<svg xmlns="http://www.w3.org/2000/svg" width="12.845" height="12.844" viewBox="0 0 12.845 12.844">
  <path id="icons8_user_male" d="M11.028,11.564v-1.07a2.8,2.8,0,0,0,1-1.58c.189-.014.487-.188.575-.875a.626.626,0,0,0-.254-.641,2.832,2.832,0,0,0,.283-1.185c0-1.3-.51-2.408-1.606-2.408A1.7,1.7,0,0,0,9.422,3,2.943,2.943,0,0,0,6.211,6.212,3.19,3.19,0,0,0,6.494,7.4a.627.627,0,0,0-.254.641c.088.687.385.861.575.875a2.8,2.8,0,0,0,1,1.58v1.07C7.282,13.169,3,12.1,3,15.845H15.845C15.845,12.1,11.563,13.169,11.028,11.564Z" transform="translate(-3 -3.001)" fill="#eb0e4c"/>
</svg>
