<svg xmlns="http://www.w3.org/2000/svg" width="12.844" height="14.596" viewBox="0 0 12.844 14.596">
  <path id="icons8_password" d="M10.422,2A4.1,4.1,0,0,0,6.335,6.087V7.254H5.168A1.167,1.167,0,0,0,4,8.422v7.006A1.167,1.167,0,0,0,5.168,16.6H15.677a1.167,1.167,0,0,0,1.168-1.168V8.422a1.167,1.167,0,0,0-1.168-1.168H14.509V6.087A4.073,4.073,0,0,0,10.63,2.042.584.584,0,0,0,10.422,2Zm0,1.168a2.91,2.91,0,0,1,2.919,2.919V7.254H7.5V6.087A2.91,2.91,0,0,1,10.422,3.168Zm-3.5,7.59a1.168,1.168,0,1,1-1.168,1.168A1.167,1.167,0,0,1,6.919,10.757Zm3.5,0a1.168,1.168,0,1,1-1.168,1.168A1.167,1.167,0,0,1,10.422,10.757Zm3.5,0a1.168,1.168,0,1,1-1.168,1.168A1.167,1.167,0,0,1,13.925,10.757Z" transform="translate(-4 -2)" fill="#eb0e4c"/>
</svg>
