<svg xmlns="http://www.w3.org/2000/svg" width="12.13" height="15.932" viewBox="0 0 12.13 15.932">
  <g id="Group_3666" data-name="Group 3666" transform="translate(-361.822 -190.622)">
    <path id="Path_5640" data-name="Path 5640" d="M373.613,465.525H362.158c-.341-.2-.39-.327-.29-.73l.879-3.543a.48.48,0,0,1,.54-.426c.768,0,1.536,0,2.3,0a.35.35,0,0,1,.214.087,4.076,4.076,0,0,1,.382.408,1.31,1.31,0,0,1,.29.71c.022.215.04.431.06.659-.155,0-.326,0-.5,0a.472.472,0,0,0-.488.46.467.467,0,0,0,.49.473q1.844,0,3.688,0a.467.467,0,1,0,0-.932c-.17,0-.34,0-.5,0,.03-.269.046-.527.089-.781a1.906,1.906,0,0,1,.716-1.061.216.216,0,0,1,.132-.025q1.175,0,2.35,0a.468.468,0,0,1,.5.395q.453,1.824.9,3.649C374,465.2,373.934,465.335,373.613,465.525Z" transform="translate(0 -258.971)" fill="#eb0e4c"/>
    <path id="Path_5641" data-name="Path 5641" d="M394.263,194.648a5.146,5.146,0,0,0-6.021-3.926,5.251,5.251,0,0,0-4.122,5.268,4.43,4.43,0,0,0,.612,2.1,7.748,7.748,0,0,0,1.624,1.891c.538.48,1.093.94,1.62,1.431a2.412,2.412,0,0,1,.814,1.8.468.468,0,1,0,.933,0,2.313,2.313,0,0,1,.637-1.609,11.714,11.714,0,0,1,.86-.808,17.286,17.286,0,0,0,1.965-1.857A4.753,4.753,0,0,0,394.263,194.648Zm-2.673,3.436a.469.469,0,0,1-.507.5q-1.828,0-3.657,0a.464.464,0,0,1-.5-.507,8.736,8.736,0,0,1,.061-1.379,2.267,2.267,0,0,1,1.942-1.823c.03,0,.059-.014.139-.033a1.439,1.439,0,0,1-.978-.623,1.354,1.354,0,0,1-.189-1.115,1.4,1.4,0,0,1,2.751.217,1.433,1.433,0,0,1-1.184,1.523c.153.035.29.059.422.1a2.328,2.328,0,0,1,1.7,2.237Q391.594,197.632,391.59,198.083Z" transform="translate(-21.371)" fill="#eb0e4c"/>
    <path id="Path_5642" data-name="Path 5642" d="M476.641,316.512h-2.788a1.587,1.587,0,0,1,.477-1.519,1.323,1.323,0,0,1,1.48-.213,1.361,1.361,0,0,1,.83,1.31C476.643,316.227,476.641,316.366,476.641,316.512Z" transform="translate(-107.353 -118.865)" fill="#eb0e4c"/>
    <path id="Path_5643" data-name="Path 5643" d="M497.374,247.931a.467.467,0,1,1-.455-.474A.472.472,0,0,1,497.374,247.931Z" transform="translate(-129.022 -54.472)" fill="#eb0e4c"/>
  </g>
</svg>
