<svg xmlns="http://www.w3.org/2000/svg" width="12.106" height="14.853" viewBox="0 0 12.106 14.853">
  <path id="icons8_home_address" d="M10.053,2A6.053,6.053,0,0,0,4,8.053c0,3.981,3.936,5.887,4.429,6.33a5.108,5.108,0,0,1,1.087,2.043.552.552,0,0,0,1.075,0,5.111,5.111,0,0,1,1.087-2.043c.493-.444,4.429-2.35,4.429-6.33A6.053,6.053,0,0,0,10.053,2Zm0,3.3a.273.273,0,0,1,.164.055l2.2,1.651a.275.275,0,0,1-.166.5v2.751H10.6V8.6H9.5v1.651H7.852V7.5a.269.269,0,0,1-.22-.1.276.276,0,0,1,.056-.386l2.2-1.651A.277.277,0,0,1,10.054,5.3Z" transform="translate(-4 -2)" fill="#eb0e4c"/>
</svg>
