<svg xmlns="http://www.w3.org/2000/svg" width="23" height="23" viewBox="0 0 23 23">
  <path id="icons8_add_1" d="M15.5,4A11.7,11.7,0,0,0,9.583,5.642,11.384,11.384,0,0,0,4,15.5a11.653,11.653,0,0,0,2.8,7.517A11.321,11.321,0,0,0,15.5,27a11.638,11.638,0,0,0,8.33-3.58A11.282,11.282,0,0,0,27,15.5,11.513,11.513,0,0,0,15.5,4Zm0,1.725A9.775,9.775,0,1,1,5.725,15.5,9.762,9.762,0,0,1,15.5,5.725Zm-.013,4.013a.863.863,0,0,0-.849.875v4.025H10.613a.863.863,0,1,0,0,1.725h4.025v4.025a.863.863,0,1,0,1.725,0V16.362h4.025a.863.863,0,1,0,0-1.725H16.363V10.612a.863.863,0,0,0-.876-.875Z" transform="translate(-4 -4)" fill="#ff0048"/>
</svg>
