<svg xmlns="http://www.w3.org/2000/svg" width="40" height="40" viewBox="0 0 40 40">
  <g id="Group_2833" data-name="Group 2833" transform="translate(-298 -466)">
    <rect id="Rectangle_2017" data-name="Rectangle 2017" width="40" height="40" rx="5" transform="translate(298 466)"/>
    <path id="Icon_awesome-apple" data-name="Icon awesome-apple" d="M12.458,11.409a3.612,3.612,0,0,1,1.935-3.281A4.157,4.157,0,0,0,11.115,6.4c-1.374-.108-2.875.8-3.424.8-.58,0-1.911-.762-2.956-.762C2.576,6.475.281,8.162.281,11.594a9.644,9.644,0,0,0,.557,3.142c.5,1.42,2.283,4.9,4.148,4.844.975-.023,1.664-.693,2.933-.693,1.23,0,1.869.693,2.956.693,1.88-.027,3.5-3.192,3.97-4.616a3.836,3.836,0,0,1-2.387-3.556Zm-2.19-6.353A3.644,3.644,0,0,0,11.2,2.25,4.1,4.1,0,0,0,8.569,3.6a3.7,3.7,0,0,0-.991,2.782A3.25,3.25,0,0,0,10.268,5.055Z" transform="translate(310.719 474.75)" fill="#fff"/>
  </g>
</svg>
