<svg id="Component_15_1" data-name="Component 15 – 1" xmlns="http://www.w3.org/2000/svg" width="59" height="59" viewBox="0 0 59 59">
  <circle id="Ellipse_83" data-name="Ellipse 83" cx="29.5" cy="29.5" r="29.5" fill="#afafaf"/>
  <path id="Icon_ionic-ios-person" data-name="Icon ionic-ios-person" d="M52.719,51.526c-.9-4-6.068-5.943-7.852-6.571-1.96-.691-4.749-.854-6.546-1.256A6.651,6.651,0,0,1,35.293,42.3c-.5-.6-.2-6.194-.2-6.194a18.635,18.635,0,0,0,1.432-2.726,35.165,35.165,0,0,0,1.055-4.762s1.03,0,1.395-1.809c.389-1.973,1.005-2.739.93-4.209-.075-1.445-.867-1.407-.867-1.407a22.028,22.028,0,0,0,.854-6.445C40,9.588,35.959,4.5,28.634,4.5c-7.425,0-11.383,5.088-11.27,10.252a22.976,22.976,0,0,0,.842,6.445s-.792-.038-.867,1.407c-.075,1.47.54,2.236.93,4.209.352,1.809,1.395,1.809,1.395,1.809a35.166,35.166,0,0,0,1.055,4.762,18.635,18.635,0,0,0,1.432,2.726s.3,5.591-.2,6.194A6.651,6.651,0,0,1,18.923,43.7c-1.8.4-4.586.565-6.546,1.256-1.784.628-6.948,2.576-7.852,6.571a1,1,0,0,0,.993,1.219H51.739A1,1,0,0,0,52.719,51.526Z" transform="translate(0.499 6.255)" fill="#fff"/>
</svg>
