<svg xmlns="http://www.w3.org/2000/svg" width="35.032" height="35.034" viewBox="0 0 35.032 35.034">
  <g id="bank" transform="translate(-0.015 0)">
    <path id="Path_5645" data-name="Path 5645" d="M35.047,12.182V10.639A.518.518,0,0,0,34.8,10.2L18.876.383a2.549,2.549,0,0,0-2.69,0L.259,10.2a.518.518,0,0,0-.244.437v1.543A2.082,2.082,0,0,0,2.3,14.238a1.962,1.962,0,0,0,1.816,2.9v6.436a.513.513,0,0,0,1.026,0V17.133h3.1V29.055h-3.1V25.963a.513.513,0,0,0-1.026,0v3.092a1.973,1.973,0,0,0-2.053,1.961,1.951,1.951,0,0,0,.237.934H1.213a1.2,1.2,0,0,0-1.2,1.2v.686a1.2,1.2,0,0,0,1.2,1.2H33.849a1.2,1.2,0,0,0,1.2-1.2v-.686a1.2,1.2,0,0,0-1.2-1.2H32.757a1.962,1.962,0,0,0-1.816-2.9V17.133a1.977,1.977,0,0,0,2.053-1.961,1.951,1.951,0,0,0-.237-.934,2.1,2.1,0,0,0,2.29-2.056ZM4.026,16.107a.934.934,0,0,1,0-1.869H9.364a.934.934,0,0,1,0,1.869Zm7.059-1.869h2.056a1.962,1.962,0,0,0,1.816,2.9V29.055A1.973,1.973,0,0,0,12.9,31.016a1.951,1.951,0,0,0,.237.934H11.085a1.962,1.962,0,0,0-1.816-2.9V17.133a1.976,1.976,0,0,0,2.053-1.961A1.951,1.951,0,0,0,11.085,14.238Zm10.836,0h2.056a1.962,1.962,0,0,0,1.816,2.9V29.055a1.973,1.973,0,0,0-2.053,1.961,1.951,1.951,0,0,0,.237.934H21.921a1.962,1.962,0,0,0-1.816-2.9V17.133a1.976,1.976,0,0,0,2.053-1.961A1.951,1.951,0,0,0,21.921,14.238ZM20.2,30.081a.934.934,0,0,1,0,1.869H14.862a.934.934,0,0,1,0-1.869Zm-4.217-1.026V17.133h3.1V29.055h-3.1ZM20.2,16.107H14.862a.934.934,0,0,1,0-1.869H20.2a.934.934,0,0,1,0,1.869ZM4.026,30.081H9.364a.934.934,0,0,1,0,1.869H4.026a.934.934,0,0,1,0-1.869Zm29.824,2.9a.172.172,0,0,1,.171.172v.686a.172.172,0,0,1-.171.172H1.213a.172.172,0,0,1-.171-.172v-.686a.172.172,0,0,1,.171-.172Zm-2.813-2.9a.934.934,0,0,1,0,1.869H25.7a.934.934,0,0,1,0-1.869Zm-4.217-1.026V17.133h3.1V29.055h-3.1Zm4.217-12.948H25.7a.934.934,0,0,1,0-1.869h5.338a.934.934,0,0,1,0,1.869Zm-28.969-2.9a1.029,1.029,0,0,1-1.026-1.03v-1.03H24.75a.513.513,0,1,0,0-1.026H2.339L16.725,1.257a1.528,1.528,0,0,1,1.612,0l14.386,8.869H27.145a.513.513,0,1,0,0,1.026H34.02v1.03a1.029,1.029,0,0,1-1.026,1.03H2.068Z" transform="translate(0)" fill="#ec0e4d"/>
  </g>
</svg>
