<?xml version="1.0" encoding="utf-8"?>
<!-- Svg Vector Icons : http://www.onlinewebfonts.com/icon -->
<!DOCTYPE svg PUBLIC "-//W3C//DTD SVG 1.1//EN" "http://www.w3.org/Graphics/SVG/1.1/DTD/svg11.dtd">
<svg version="1.1" xmlns="http://www.w3.org/2000/svg" xmlns:xlink="http://www.w3.org/1999/xlink" x="0px" y="0px" viewBox="0 0 1000 1000" enable-background="new 0 0 1000 1000" xml:space="preserve">
<metadata> Svg Vector Icons : http://www.onlinewebfonts.com/icon </metadata>
<g><path d="M927.3,625.5V319.2c0-46.1-24.5-89.4-64.1-113.1L567.9,28.9C526,3.7,474,3.7,432.1,28.9L136.8,206c-39.5,23.7-64,67-64,113.1v361.7c0,46.1,24.5,89.4,64,113.1l295.3,177.2c21,12.6,44.4,18.8,67.9,18.8c23.4,0,46.9-6.3,67.8-18.8l298.5-177.6l-0.2-0.4c7.2-4.3,12.2-11.8,12.2-20.7c0-13.6-11-24.5-24.5-24.5c-4.6,0-8.7,1.6-12.3,3.8l-0.2-0.3L542.6,929.1c-26.3,15.8-59,15.8-85.3,0L162,751.9c-24.8-14.9-40.3-42.2-40.3-71.1V319.2c0-29,15.4-56.2,40.3-71.1L457.3,70.9c26.3-15.8,59-15.8,85.3,0L838,248.1c24.8,14.9,40.2,42.1,40.2,71.1v306.3v0c0,13.5,11,24.5,24.5,24.5C916.3,650,927.3,639.1,927.3,625.5C927.3,625.5,927.3,625.5,927.3,625.5z"/><path d="M352.1,774.4l-12.8-45.7c-3.3-12-15.1-19.5-27.4-17.6l-49.2,7.7c-20.8,3.3-35.7-19.4-24.6-37.2l77.3-123.4c-48.3-64.1-61.4-150.3-28.2-229.7c31.6-75.4,103.3-129,184.5-138.7c140.1-16.7,259.4,92.7,259.4,229.5c0,50.2-16.4,98.8-46.6,138.9l77.3,123.4c11.2,17.8-3.8,40.5-24.6,37.2l-49.2-7.7c-12.3-1.9-24,5.6-27.4,17.6l-12.8,45.7c-5.7,20.5-33.1,24.4-44.4,6.4l-82.2-131.3c-14.7,1.5-27.9,1.5-42.6,0l-82.3,131.3C385.1,798.8,357.8,794.8,352.1,774.4z M545.8,596.3l69.9,111.6l9.6-34.4c3.4-11.9,15.1-19.5,27.4-17.6l39.1,6.1L624,553.8l12.2-13.7c46.5-52.4,60.3-128,29.7-196.3c-23.8-53.2-73.3-92.5-130.6-103.3c-115.9-21.9-217.5,66.9-217.5,178.9c0,44.4,16.3,87.3,46,120.7l12.2,13.7L308.2,662l39.1-6.1c12.3-1.9,24,5.6,27.4,17.6l9.6,34.3l69.9-111.5l16.1,2.7c19.7,3.2,39.8,3.2,59.4,0L545.8,596.3z"/><path d="M409.2,504.6l8.4-48.9c1.4-8-1.3-16.1-7-21.7L375,399.4c-14.5-14.2-6.5-38.9,13.6-41.8l49.1-7.1c8-1.2,14.9-6.2,18.4-13.4l22-44.5c9-18.2,35-18.2,43.9,0l21.9,44.5c3.6,7.2,10.5,12.2,18.4,13.4l49.1,7.1c20.1,2.9,28.1,27.6,13.6,41.8L589.5,434c-5.8,5.6-8.4,13.7-7.1,21.7l8.4,48.9c3.4,20-17.6,35.3-35.5,25.8l-43.9-23.1c-7.1-3.8-15.7-3.8-22.8,0l-43.9,23.1C426.7,539.9,405.7,524.6,409.2,504.6z M488.6,452c7.1-3.7,15.7-3.7,22.8,0l22.8,12l-4.3-25.4c-1.4-7.9,1.3-16,7-21.7l18.4-18l-25.4-3.7c-8-1.2-14.9-6.2-18.5-13.4L500,358.8l-11.4,23.1c-3.6,7.2-10.5,12.2-18.5,13.4l-25.5,3.7l18.4,18c5.8,5.6,8.4,13.7,7.1,21.7l-4.3,25.4L488.6,452z"/></g>
</svg>