<svg xmlns="http://www.w3.org/2000/svg" width="23" height="26" viewBox="0 0 23 26">
    <path fill="#818181" fill-rule="nonzero" stroke="#818181" stroke-width=".7" d="M20.341 7.969a.503.503 0 0 0-.506-.426h-2.748v-1.72c0-2.66-2.45-4.823-5.447-4.823-2.998 0-5.447 2.163-5.447 4.822v1.72H3.165a.503.503 0 0 0-.506.427l-1.635 13.25a3.13 3.13 0 0 0 .892 2.581c.748.77 1.813 1.207 2.928 1.2h13.311c1.115.008 2.181-.428 2.93-1.198a3.138 3.138 0 0 0 .891-2.586L20.341 7.969zM7.212 5.822c0-2.135 1.992-3.872 4.428-3.872s4.428 1.737 4.428 3.872v1.72H7.212v-1.72zM20.324 23.17a2.995 2.995 0 0 1-2.169.88H4.845a2.994 2.994 0 0 1-2.168-.88 2.247 2.247 0 0 1-.64-1.847L3.62 8.492h2.573v1.515c0 .262.228.475.51.475.28 0 .51-.213.51-.475V8.493h8.855v1.514c0 .262.228.475.51.475.281 0 .51-.213.51-.475V8.493h2.292l1.583 12.829a2.246 2.246 0 0 1-.64 1.847z"/>
</svg>
