<svg xmlns="http://www.w3.org/2000/svg" width="125.858" height="102.596" viewBox="0 0 125.858 102.596">
  <g id="Group_1" data-name="Group 1" transform="translate(-497.523 -540.641)">
    <path id="Path_4" data-name="Path 4" d="M127.914,28.006a5.305,5.305,0,0,0-4.361-2.285H28.826L22.7,11.026C21.059,7.069,19.663,4.492,15.379,4.5H3v6.907H15.379L40.548,75.514a5.305,5.305,0,0,0,4.9,3.261l43.638-5.41a5.318,5.318,0,0,0,4.969-3.438l34.472-37.033a5.305,5.305,0,0,0-.612-4.884Z" transform="translate(494.523 536.141)"/>
    <path id="Path_6" data-name="Path 6" d="M55.253,42.627A15.627,15.627,0,1,1,39.627,27,15.626,15.626,0,0,1,55.253,42.627Z" transform="translate(557.211 584.057)"/>
    <rect id="Rectangle_1" data-name="Rectangle 1" width="6.172" height="45.675" transform="matrix(0.819, -0.574, 0.574, 0.819, 575.687, 599.853)"/>
    <rect id="Rectangle_2" data-name="Rectangle 2" width="6.172" height="45.675" rx="3" transform="translate(530.519 600.888) rotate(-22)"/>
    <path id="Rectangle_3" data-name="Rectangle 3" d="M0,0H6.172a0,0,0,0,1,0,0V45.675a0,0,0,0,1,0,0h0A6.172,6.172,0,0,1,0,39.5V0A0,0,0,0,1,0,0Z" transform="translate(564.066 596.313) rotate(23)"/>
  </g>
</svg>
