<svg xmlns="http://www.w3.org/2000/svg" width="17.455" height="16" viewBox="0 0 17.455 16">
  <path id="ios-color-filter-outline" d="M18.236,11.631a5.091,5.091,0,1,0-10.018,0A5.091,5.091,0,1,0,13.227,20.1a5.091,5.091,0,1,0,5.009-8.466Zm-9.372-.915a4.364,4.364,0,1,1,8.659.77,5.158,5.158,0,0,0-.659-.043,5.076,5.076,0,0,0-3.636,1.528,5.094,5.094,0,0,0-4.3-1.486,4.375,4.375,0,0,1-.068-.77Zm5.091,5.818a4.341,4.341,0,0,1-.727,2.409,4.365,4.365,0,0,1-.659-3.179,5.14,5.14,0,0,0,1.319,0,4.375,4.375,0,0,1,.068.77Zm-.727-1.455a4.375,4.375,0,0,1-.468-.025,4.354,4.354,0,0,1,.468-.93,4.352,4.352,0,0,1,.469.93,4.377,4.377,0,0,1-.469.025Zm-1.191-.165A4.382,4.382,0,0,1,9.122,12.2a4.358,4.358,0,0,1,3.631,1.335,5.077,5.077,0,0,0-.718,1.384ZM13.7,13.53A4.358,4.358,0,0,1,17.332,12.2a4.382,4.382,0,0,1-2.914,2.718,5.074,5.074,0,0,0-.718-1.384ZM9.591,20.9A4.364,4.364,0,0,1,8.4,12.336a5.1,5.1,0,0,0,3.455,3.284,5.1,5.1,0,0,0,.9,3.918A4.353,4.353,0,0,1,9.591,20.9Zm7.273,0a4.353,4.353,0,0,1-3.163-1.36,5.065,5.065,0,0,0,.981-3,5.138,5.138,0,0,0-.082-.915,5.1,5.1,0,0,0,3.455-3.284A4.364,4.364,0,0,1,16.864,20.9Z" transform="translate(-4.5 -5.625)" fill="#2f2771"/>
</svg>
