<svg xmlns="http://www.w3.org/2000/svg" width="16.613" height="17.167" viewBox="0 0 16.613 17.167">
  <path id="icons8_chat_bubble" d="M2.917,2A1.924,1.924,0,0,0,1,3.917V14.14a1.924,1.924,0,0,0,1.917,1.917H4.834v3.11L9.5,16.057H15.7a1.924,1.924,0,0,0,1.917-1.917V3.917A1.924,1.924,0,0,0,15.7,2Zm0,1.278H15.7a.631.631,0,0,1,.639.639V14.14a.631.631,0,0,1-.639.639H9.112l-3,2v-2H2.917a.631.631,0,0,1-.639-.639V3.917A.631.631,0,0,1,2.917,3.278ZM4.834,8.39V9.667H6.112V8.39Zm3.834,0V9.667H9.945V8.39Zm3.834,0V9.667h1.278V8.39Z" transform="translate(-1 -2)" fill="#fff"/>
</svg>
