<svg id="Component_8_1" data-name="Component 8 – 1" xmlns="http://www.w3.org/2000/svg" width="26" height="26" viewBox="0 0 26 26">
  <circle id="Ellipse_86" data-name="Ellipse 86" cx="13" cy="13" r="13" fill="#ec0e4d"/>
  <path id="Path_1984" data-name="Path 1984" d="M12.13,12.231a.966.966,0,0,1-.966.966h-8.7a.966.966,0,0,1-.966-.966V6.916a.966.966,0,0,1,.966-.966H4.4L5.365,4.5h2.9l.966,1.45h1.933a.966.966,0,0,1,.966.966Z" transform="translate(6.5 4.5)" fill="none" stroke="#fff" stroke-linecap="round" stroke-linejoin="round" stroke-width="1"/>
  <path id="Path_1985" data-name="Path 1985" d="M15.865,15.433A1.933,1.933,0,1,1,13.933,13.5,1.933,1.933,0,0,1,15.865,15.433Z" transform="translate(-0.618 -1.601)" fill="none" stroke="#fff" stroke-linecap="round" stroke-linejoin="round" stroke-width="1"/>
</svg>
