<svg xmlns="http://www.w3.org/2000/svg" width="10.041" height="10.041" viewBox="0 0 10.041 10.041">
  <g id="Icon_ionic-ios-remove-circle-outline" data-name="Icon ionic-ios-remove-circle-outline" transform="translate(-3.375 -3.375)">
    <path id="Path_5198" data-name="Path 5198" d="M15.267,16.875H10.9a.37.37,0,0,0-.386.386.374.374,0,0,0,.386.386h4.369a.386.386,0,1,0,0-.772Z" transform="translate(-4.687 -8.866)" fill="#fff"/>
    <path id="Path_5199" data-name="Path 5199" d="M8.4,4.051A4.343,4.343,0,1,1,5.323,5.323,4.316,4.316,0,0,1,8.4,4.051m0-.676A5.021,5.021,0,1,0,13.416,8.4,5.02,5.02,0,0,0,8.4,3.375Z" fill="#fff"/>
  </g>
</svg>
