<svg xmlns="http://www.w3.org/2000/svg" width="9.919" height="9.476" viewBox="0 0 9.919 9.476">
  <path id="icons8_handle_with_care" d="M6.959,1.893,4.48,3.07v2.6l2.48,1.3,2.48-1.3V3.07Zm0,1.1,1.448.688-1.448.8-1.448-.8ZM2.5,3.93a.5.5,0,0,0-.5.5V7.642a1,1,0,0,0,.291.7l1.693,1.693v1.332h2.48V9.676a1.981,1.981,0,0,0-.58-1.4l-2.1-2.187a.992.992,0,0,0,0,1.4L4.66,8.4a.248.248,0,1,1-.351.351L2.99,7.409s0,0,0-.008V4.426A.5.5,0,0,0,2.5,3.93Zm8.927,0a.5.5,0,0,0-.5.5V7.4s0,0,0,.008L9.61,8.754A.248.248,0,0,1,9.259,8.4l.881-.915a.992.992,0,0,0,0-1.4l-2.1,2.187a1.981,1.981,0,0,0-.58,1.4v1.693h2.48V10.037l1.693-1.693a1,1,0,0,0,.291-.7V4.426A.5.5,0,0,0,11.423,3.93Z" transform="translate(-2 -1.893)" fill="#10e83b"/>
</svg>
