<svg id="Component_12_2" data-name="Component 12 – 2" xmlns="http://www.w3.org/2000/svg" width="50" height="50" viewBox="0 0 50 50">
  <circle id="Ellipse_72" data-name="Ellipse 72" cx="25" cy="25" r="25" fill="#fff"/>
  <path id="Icon_material-location-disabled" data-name="Icon material-location-disabled" d="M20.922,11.24a8.761,8.761,0,0,0-7.734-7.734V1.5H11.24V3.506a8.527,8.527,0,0,0-3.078.945L9.623,5.912a6.808,6.808,0,0,1,9.409,6.3,6.849,6.849,0,0,1-.506,2.581l1.461,1.461a8.81,8.81,0,0,0,.945-3.068h2V11.24ZM3.448,4.685,5.435,6.672A8.682,8.682,0,0,0,3.506,11.24H1.5v1.948H3.506a8.761,8.761,0,0,0,7.734,7.734v2.006h1.948V20.922a8.76,8.76,0,0,0,4.568-1.929l1.987,1.987,1.237-1.237-16.3-16.3ZM16.373,17.61A6.812,6.812,0,0,1,6.818,8.055l9.555,9.555Z" transform="translate(12.786 12.5)"/>
</svg>
