<svg xmlns="http://www.w3.org/2000/svg" width="115.998" height="115.998" viewBox="0 0 115.998 115.998">
  <path id="icons8_ok" d="M65,7a58,58,0,1,0,58,58A58.023,58.023,0,0,0,65,7Zm0,3.515A54.484,54.484,0,1,1,10.515,65,54.457,54.457,0,0,1,65,10.515Zm0,5.273a1.758,1.758,0,1,0,1.758,1.758A1.761,1.761,0,0,0,65,15.788Zm9.3.906a1.764,1.764,0,1,0,.3.034C74.5,16.714,74.4,16.7,74.3,16.694Zm-18.55.007a1.992,1.992,0,0,0-.35.028,1.762,1.762,0,0,0-.632,3.192,1.779,1.779,0,0,0,1.318.261,1.757,1.757,0,0,0-.336-3.481Zm-8.9,2.7a1.82,1.82,0,0,0-.686.13,1.771,1.771,0,1,0,.686-.13Zm36.346,0a1.749,1.749,0,1,0,.631.13A1.819,1.819,0,0,0,83.2,19.4Zm-44.543,4.38a1.792,1.792,0,0,0-1,.3,1.748,1.748,0,1,0,1-.3Zm52.733,0a1.757,1.757,0,1,0,1.7,1.421,1.776,1.776,0,0,0-1.7-1.421Zm-59.921,5.9a1.77,1.77,0,0,0-1.263.522,1.753,1.753,0,1,0,2.478,0A1.728,1.728,0,0,0,31.468,29.683Zm67.109,0a1.77,1.77,0,0,0-1.263.522,1.753,1.753,0,1,0,2.478,0A1.728,1.728,0,0,0,98.578,29.683Zm5.9,7.195a1.712,1.712,0,0,0-1,.3,1.763,1.763,0,1,0,1-.3Zm-78.9,0a1.758,1.758,0,1,0,.947.3A1.774,1.774,0,0,0,25.571,36.878Zm59.674,7.813L84,45.934,59.589,70.354,47.671,59.486,39.686,68.7,60.138,87l33.709-33.7Zm23.61.391a1.7,1.7,0,0,0-.687.13,1.774,1.774,0,1,0,.687-.13Zm-87.658,0a1.768,1.768,0,1,0,.632.137A1.656,1.656,0,0,0,21.2,45.083Zm64.047,4.579,3.632,3.632L60.008,82.163,44.616,68.384l3.35-3.872L59.7,75.208Zm26.3,4.325a1.509,1.509,0,0,0-.35.027,1.8,1.8,0,1,0,.35-.027Zm-93.04,0a1.757,1.757,0,0,0-.385,3.481,1.791,1.791,0,0,0,1.318-.261,1.768,1.768,0,0,0-.631-3.192A2.249,2.249,0,0,0,18.506,53.987Zm-.961,9.255A1.758,1.758,0,1,0,19.3,65,1.761,1.761,0,0,0,17.545,63.241Zm94.907,0A1.758,1.758,0,1,0,114.21,65,1.761,1.761,0,0,0,112.453,63.241ZM18.465,72.5a2,2,0,0,0-.35.034,1.752,1.752,0,1,0,.35-.034Zm93.123,0a1.771,1.771,0,1,0,.3.034C111.787,72.517,111.691,72.5,111.588,72.5Zm-2.7,8.9a1.771,1.771,0,1,0,.631.137A1.829,1.829,0,0,0,108.883,81.394ZM21.17,81.4a1.82,1.82,0,0,0-.686.131,1.767,1.767,0,0,0-.947.954,1.79,1.79,0,0,0-.007,1.346,1.754,1.754,0,0,0,2.3.947,1.724,1.724,0,0,0,.954-.947A1.758,1.758,0,0,0,21.17,81.4Zm83.319,8.2a1.755,1.755,0,0,0-1.009,3.213,1.759,1.759,0,0,0,2.437-.487,1.744,1.744,0,0,0-.488-2.43A1.641,1.641,0,0,0,104.489,89.6Zm-78.925,0a1.712,1.712,0,0,0-1,.3,1.763,1.763,0,1,0,1-.3Zm5.9,7.2a1.754,1.754,0,1,0,1.215.515A1.693,1.693,0,0,0,31.468,96.8Zm67.109,0a1.754,1.754,0,1,0,1.215.515A1.693,1.693,0,0,0,98.578,96.8ZM38.67,102.7a1.753,1.753,0,1,0,.947.3A1.746,1.746,0,0,0,38.67,102.7Zm52.713,0a1.759,1.759,0,1,0,1.442.776A1.727,1.727,0,0,0,91.383,102.7Zm-44.5,4.38a1.77,1.77,0,1,0,.632.137A1.8,1.8,0,0,0,46.881,107.077Zm36.291,0a1.782,1.782,0,0,0-1.634,1.085,1.806,1.806,0,0,0-.007,1.352,1.761,1.761,0,1,0,1.641-2.437Zm-27.379,2.705a1.763,1.763,0,1,0,.3.034A1.445,1.445,0,0,0,55.792,109.782Zm18.468.007a1.423,1.423,0,0,0-.343.027,1.763,1.763,0,0,0-1.387,2.067A1.769,1.769,0,0,0,74.6,113.27a1.758,1.758,0,0,0,1.38-2.073A1.757,1.757,0,0,0,74.26,109.789ZM65,110.7a1.758,1.758,0,1,0,1.758,1.758A1.761,1.761,0,0,0,65,110.7Z" transform="translate(-7 -7)" fill="#eb0e4c"/>
</svg>
