<svg xmlns="http://www.w3.org/2000/svg" width="26" height="26" viewBox="0 0 26 26">
    <g fill="none">
        <g fill="#B8EAEE" transform="translate(9.936 12.96)">
            <circle cx="3.024" cy=".648" r="1"/>
            <circle cx="5.4" cy=".648" r="1"/>
            <circle cx=".648" cy=".648" r="1"/>
        </g>
        <path fill="#D50A75" d="M20.298 20.736h-.63c-.029-.403-.096-.803-.202-1.193.421.275.72.703.832 1.193zm-1.892 2.376c-.018 0-.034-.005-.052-.005-.187-.483-.303-.99-.345-1.507h.794c-.042.516-.158 1.024-.345 1.507-.018 0-.034.005-.052.005zm-.397-2.376c.042-.516.158-1.024.345-1.507.018 0 .034-.005.052-.005.018 0 .034.005.052.005.187.483.303.99.345 1.507h-.794zm-.663-1.193c-.106.39-.173.79-.201 1.193h-.63c.112-.49.41-.918.83-1.193zm-.832 2.057h.63c.028.403.096.803.201 1.193-.42-.275-.718-.703-.83-1.193h-.001zm2.952 1.193c.106-.39.173-.79.201-1.193h.63c-.112.49-.41.918-.83 1.193z"/>
        <circle cx="12.96" cy="13.608" r="1" fill="#D50A75"/>
        <path fill="#D50A75" d="M16.514 21.6h.63c.029.403.096.803.202 1.193-.421-.275-.72-.703-.832-1.193zm.63-.864h-.63c.113-.49.41-.918.832-1.193-.106.39-.173.79-.201 1.193zm1.314 2.37c-.018.001-.034.006-.052.006-.018 0-.034-.005-.052-.005-.187-.483-.303-.99-.345-1.507h.794c-.042.516-.158 1.024-.345 1.507zm-.449-2.37c.042-.516.158-1.024.345-1.507.018 0 .034-.005.052-.005.018 0 .034.005.052.005.187.483.303.99.345 1.507h-.794zm1.457 2.057c.106-.39.173-.79.202-1.193h.63c-.113.49-.41.918-.832 1.193zm.202-2.057c-.029-.403-.096-.803-.202-1.193.421.275.72.703.832 1.193h-.63z"/>
        <path fill="#D50A75" d="M23.323 10.762c-.01-.352-.165-.686-.43-.92C22.844 4.408 18.408 0 12.96 0 7.684-.007 3.328 4.12 3.05 9.388c-.278.236-.443.578-.454.942h-.868c-.954.002-1.727.775-1.728 1.728v3.494c.001.954.774 1.727 1.728 1.728h.864c0 .715.58 1.295 1.296 1.296h.432V21.6c0 .173.103.33.262.397l1.927.825-.195.461c-.044.106-.045.225-.002.33.043.107.127.191.232.236l2.388 1.009c.159.068.33.102.502.102.617 0 1.148-.433 1.271-1.038.123-.604-.197-1.21-.765-1.451l-2.387-1.01c-.105-.044-.224-.045-.33-.002-.107.043-.191.127-.236.232l-.141.336-1.662-.712v-2.739h.432c.715 0 1.295-.58 1.296-1.296v-6.912c0-.354-.147-.693-.404-.936.263-3.455 3.2-6.09 6.663-5.978 3.463.111 6.224 2.93 6.265 6.394-.272.242-.428.588-.428.952v5.658c-.772-.105-1.559-.013-2.286.267l-2.813-.563c-.142-.028-.288.016-.39.119-.103.102-.147.248-.119.39l.563 2.813c-.78 2.055-.05 4.376 1.765 5.615 1.816 1.238 4.244 1.069 5.872-.408 1.627-1.477 2.03-3.878.972-5.805.46-.21.755-.669.756-1.174h.864c.954-.001 1.727-.774 1.728-1.728V12.49c-.001-.953-.774-1.726-1.728-1.728h-.869zM2.592 16.416h-.864c-.477 0-.864-.387-.864-.864v-3.494c0-.477.387-.863.864-.864h.864v5.222zm5.022 6.01l1.99.84c.144.06.246.191.266.346.02.154-.045.307-.17.4-.124.094-.29.113-.432.05l-1.99-.84.336-.796zM6.048 17.28c0 .238-.194.432-.432.432H3.888c-.238 0-.432-.194-.432-.432v-6.912c0-.238.194-.432.432-.432h1.728c.238 0 .432.194.432.432v6.912zM18.155 4.74c-1.99-1.989-4.942-2.665-7.6-1.741-2.657.924-4.553 3.285-4.881 6.079-.02-.001-.038-.006-.058-.006H3.94C4.372 4.415 8.283.856 12.96.864c4.857 0 8.822 3.839 9.05 8.64h-1.706c-.007 0-.014.003-.02.003-.099-1.797-.857-3.495-2.129-4.767zm-2.98 18.592c-.721-1.077-.858-2.444-.364-3.643.033-.079.041-.166.024-.25l-.46-2.302 2.303.46c.083.017.17.009.249-.024 1.453-.598 3.123-.262 4.233.85 1.109 1.114 1.44 2.785.837 4.236-.603 1.451-2.02 2.397-3.591 2.397-1.297 0-2.509-.646-3.23-1.724zm7.289-12.138v6.518c-.001.225-.176.41-.401.426-.575-.693-1.335-1.209-2.191-1.488V10.8c.001-.238.194-.43.432-.432h1.728c.238.001.43.194.432.432v.394zm2.592 4.79c0 .477-.387.864-.864.864h-.864v-5.222h.864c.477 0 .864.387.864.864v3.494z"/>
        <circle cx="15.336" cy="13.608" r="1" fill="#D50A75"/>
        <circle cx="10.584" cy="13.608" r="1" fill="#D50A75"/>
    </g>
</svg>
