<svg xmlns="http://www.w3.org/2000/svg" width="20" height="24" viewBox="0 0 20 24">
    <path fill="#D50A75" d="M9.965.33c-.136.01-.267.058-.377.14L.298 7.296c-.183.134-.292.349-.292.576 0 .228.109.443.293.577l1.868 1.374L.3 11.195c-.183.134-.29.348-.29.575 0 .227.107.44.29.575L2.17 13.72.3 15.094c-.184.134-.293.349-.293.576 0 .228.109.442.293.577l9.29 6.826c.25.184.592.184.843 0l9.29-6.826c.183-.135.292-.349.292-.577 0-.227-.109-.442-.293-.576l-1.868-1.375 1.868-1.374c.183-.134.29-.348.29-.575 0-.227-.107-.44-.29-.575l-1.868-1.372L19.72 8.45c.184-.134.293-.349.293-.577 0-.227-.109-.442-.293-.576L10.431.47c-.115-.086-.254-.135-.399-.14h-.067zm.048 1.603l8.08 5.938-1.871 1.374-6.21 4.561L1.93 7.871l8.083-5.938zm-6.64 8.773l6.215 4.566c.251.184.593.184.844 0l6.214-4.566 1.447 1.064-1.83 1.343-.041.031-1.025.754-5.184 3.81-8.083-5.94 1.444-1.062zm0 3.899h.004l6.211 4.566c.078.057.166.098.26.12.046.012.093.018.14.02.16.004.315-.045.444-.14l6.214-4.563 1.447 1.064-8.083 5.935-8.08-5.938 1.444-1.064z"/>
</svg>
