<svg xmlns="http://www.w3.org/2000/svg" width="24" height="24" viewBox="0 0 24 24">
    <path fill="none" fill-rule="evenodd" stroke="#D50A75" stroke-width="1.6" d="M12.751 2.12l2.88 5.76c.16.16.32.32.64.48l6.24.96c.64.16.96.96.48 1.44l-4.48 4.48c-.16.16-.32.48-.16.64l1.12 6.24c.16.64-.64 1.12-1.12.8l-5.6-2.88c-.16-.16-.48-.16-.8 0l-5.6 2.88c-.64.32-1.28-.16-1.12-.8l1.12-6.24c0-.32 0-.48-.16-.64l-4.96-4.8c-.48-.48-.16-1.28.48-1.28l6.24-.96c.32 0 .48-.16.64-.48l2.88-5.76c.16-.48 1.12-.48 1.28.16z"/>
</svg>
