<svg xmlns="http://www.w3.org/2000/svg" width="23" height="25" viewBox="0 0 23 25">
    <path fill="#D1DADC" fill-rule="nonzero" d="M15.861 17.768c-.219.222-.407.466-.57.724l-7.227-4.445a4.257 4.257 0 0 0 0-3.13l7.229-4.41a4.165 4.165 0 0 0 3.525 1.968c2.306 0 4.182-1.9 4.182-4.237S21.124 0 18.818 0c-2.306 0-4.181 1.901-4.181 4.238 0 .532.101 1.04.278 1.51l-7.237 4.416a4.166 4.166 0 0 0-3.496-1.92C1.876 8.245 0 10.147 0 12.483c0 2.337 1.876 4.238 4.182 4.238a4.165 4.165 0 0 0 3.496-1.92l7.236 4.452c-.18.477-.278.987-.278 1.512 0 1.132.435 2.197 1.225 2.997A4.14 4.14 0 0 0 18.818 25a4.14 4.14 0 0 0 2.957-1.24A4.238 4.238 0 0 0 23 20.765a4.238 4.238 0 0 0-1.225-2.996 4.146 4.146 0 0 0-5.914 0zM18.818.848c1.845 0 3.346 1.52 3.346 3.39 0 1.869-1.501 3.39-3.346 3.39-1.844 0-3.345-1.521-3.345-3.39 0-1.87 1.5-3.39 3.345-3.39zM4.182 15.873c-1.844 0-3.345-1.521-3.345-3.39 0-1.87 1.5-3.39 3.345-3.39 1.845 0 3.346 1.52 3.346 3.39 0 1.869-1.501 3.39-3.346 3.39zm17.001 7.289a3.318 3.318 0 0 1-4.73 0 3.392 3.392 0 0 1-.98-2.398c0-.905.348-1.756.98-2.397a3.312 3.312 0 0 1 2.365-.991c.857 0 1.714.33 2.366.991.632.64.98 1.492.98 2.397a3.39 3.39 0 0 1-.98 2.398z"/>
</svg>
