<svg xmlns="http://www.w3.org/2000/svg" width="29" height="23" viewBox="0 0 29 23">
    <g fill="#D50A75">
        <path d="M9.894 21.534h-.233c-.349-.116-.465-.466-.349-.815L17.926.931c.116-.349.465-.465.814-.349.35.116.466.466.35.815l-8.614 19.788c-.116.233-.35.349-.582.349z"/>
        <path d="M24.444 22.698c-.116 0-.233 0-.35-.116l-4.539-3.376H11.64c-.233 0-.582 0-.815-.116-.349-.117-.465-.35-.349-.699.116-.349.466-.465.698-.349.117 0 .35.116.466.116h8.148c.116 0 .233 0 .35.117l3.724 2.793V18.74c0-.349.233-.582.582-.582h1.164c.931 0 1.746-.814 1.746-1.746V8.264c0-.93-.815-1.746-1.746-1.746h-9.08c-.348 0-.581-.232-.581-.582 0-.349.233-.582.582-.582h9.079c1.63 0 2.91 1.28 2.91 2.91v8.148c0 1.63-1.28 2.91-2.91 2.91h-.582v2.794c0 .233-.116.466-.35.466-.116.116-.116.116-.232.116z"/>
        <path d="M17.46 2.91c.35 0 .582.233.582.582 0 .35-.233.582-.582.582H3.492c-.931 0-1.746.815-1.746 1.746v8.148c0 .931.815 1.746 1.746 1.746h1.164c.35 0 .582.233.582.582v2.328l3.725-2.794c.093-.093.186-.111.28-.115l2.397-.001c.35 0 .582.233.582.582 0 .35-.233.582-.582.582H9.545l-4.54 3.376c-.116.116-.233.116-.349.116-.116 0-.233 0-.233-.116-.233-.117-.349-.35-.349-.466v-2.91h-.582c-1.63 0-2.91-1.28-2.91-2.91V5.82c0-1.63 1.28-2.91 2.91-2.91H17.46zm3.492 5.82c.931 0 1.746.815 1.746 1.746v4.656c0 .35-.233.582-.582.582-.35 0-.582-.233-.582-.582v-1.746h-3.492v1.746c0 .35-.233.582-.582.582-.35 0-.582-.233-.582-.582v-4.656c0-.931.815-1.746 1.746-1.746h2.328zm0 1.164h-2.328c-.35 0-.582.233-.582.582v1.746h3.492v-1.746c0-.35-.233-.582-.582-.582z"/>
        <path d="M24.444 22.698c-.116 0-.233 0-.35-.116l-4.539-3.376H11.64c-.233 0-.582 0-.815-.116-.349-.117-.465-.35-.349-.699.116-.349.466-.465.698-.349.117 0 .35.116.466.116h8.148c.116 0 .233 0 .35.117l3.724 2.793V18.74c0-.349.233-.582.582-.582h1.164c.931 0 1.746-.814 1.746-1.746V8.264c0-.93-.815-1.746-1.746-1.746h-9.08c-.348 0-.581-.232-.581-.582 0-.349.233-.582.582-.582h9.079c1.63 0 2.91 1.28 2.91 2.91v8.148c0 1.63-1.28 2.91-2.91 2.91h-.582v2.794c0 .233-.116.466-.35.466-.116.116-.116.116-.232.116z"/>
        <path d="M4.656 20.37c-.116 0-.233 0-.233-.116-.233-.117-.349-.35-.349-.466v-2.91h-.582c-1.63 0-2.91-1.28-2.91-2.91V5.82c0-1.63 1.28-2.91 2.91-2.91H17.46c.35 0 .582.233.582.582 0 .35-.233.582-.582.582H3.492c-.931 0-1.746.815-1.746 1.746v8.148c0 .931.815 1.746 1.746 1.746h1.164c.35 0 .582.233.582.582v2.328l3.725-2.794c.116-.116.233-.116.349-.116h2.328c.35 0 .582.233.582.582 0 .35-.233.582-.582.582H9.545l-4.54 3.376c-.116.116-.233.116-.349.116z"/>
        <path d="M8.73 5.238c.35 0 .582.233.582.582v.582h2.328c.35 0 .582.233.582.582 0 .35-.233.582-.582.582h-.744c-.163 1.432-.693 2.777-1.515 3.906.67.823 1.516 1.52 2.492 2.03.233.117.349.466.233.815-.233.117-.466.233-.582.233-.117 0-.233 0-.233-.116-1.025-.513-1.924-1.228-2.658-2.079-.422.433-.897.82-1.416 1.147 0 .117-.117.117-.233.117-.233 0-.35-.117-.466-.233-.232-.233-.116-.582.117-.815.484-.333.922-.713 1.306-1.135-.768-1.162-1.257-2.496-1.39-3.87H5.82c-.35 0-.582-.233-.582-.582 0-.35.233-.582.582-.582h2.328V5.82c0-.35.233-.582.582-.582zm.996 2.329H7.718c.113 1.027.448 2.012.964 2.898.548-.86.908-1.837 1.044-2.898z"/>
    </g>
</svg>
