<svg xmlns="http://www.w3.org/2000/svg" width="24" height="23" viewBox="0 0 24 23">
    <g fill="none" fill-rule="evenodd">
        <path stroke="#A3A3A3" stroke-linecap="round" stroke-linejoin="round" stroke-width=".806" d="M14.193 17.981l-.174 1.406 1.406-.192 4.664-4.654a.578.578 0 0 0 .019-.81l-.02-.018-.404-.405a.578.578 0 0 0-.809-.02l-.02.02-4.662 4.673zM18.394 13.936l.385.385"/>
        <path fill="#A3A3A3" fill-rule="nonzero" d="M17.14 9.68a6.64 6.64 0 0 1 6.646 6.66c0 3.69-2.965 6.66-6.6 6.66-2.533 0-4.685-1.438-5.833-3.498H2.746l-.17-.007a1.85 1.85 0 0 1-1.312-.712c-.383-.479-.574-1.15-.43-1.773.43-2.06 1.53-3.593 3.347-4.6 1.29-.766 2.964-1.197 4.925-1.341.717-.048 1.482-.048 2.247-.048.622 0 1.148.048 1.674.096a6.602 6.602 0 0 1 4.112-1.438zm0 .957a5.68 5.68 0 0 0-5.691 5.703 5.68 5.68 0 0 0 5.69 5.702 5.68 5.68 0 0 0 5.69-5.702c0-3.115-2.534-5.703-5.69-5.703zm-5.6 1.39h-1.43l-.36.02c-1.814.115-3.758.426-5.283 1.37-1.243.766-2.247 1.964-2.63 3.833l-.027.128c-.043.302.051.627.219.878.191.24.478.336.717.336h8.177a6.666 6.666 0 0 1-.383-2.204c0-1.63.574-3.163 1.578-4.313-.239-.048-.526-.048-.765-.048zM10.97 0c2.487 0 4.209 1.725 4.209 4.265 0 2.54-1.722 5.366-4.208 5.366-2.487 0-4.208-2.827-4.208-5.366C6.763 1.725 8.436 0 10.97 0zm0 .958c-2.008 0-3.25 1.294-3.25 3.307 0 2.348 1.53 4.408 3.25 4.408 1.722 0 3.252-2.108 3.252-4.408 0-2.013-1.243-3.307-3.251-3.307z"/>
    </g>
</svg>
