<svg id="Group_2812" data-name="Group 2812" xmlns="http://www.w3.org/2000/svg" width="56.244" height="74.992" viewBox="0 0 56.244 74.992">
  <path id="icons8_lock" d="M44.122,8A18.766,18.766,0,0,0,25.374,26.748v7.175a28.122,28.122,0,1,0,37.5,0V26.748A18.766,18.766,0,0,0,44.122,8Zm0,2.344a16.387,16.387,0,0,1,16.4,16.4v5.294a28.065,28.065,0,0,0-32.809,0V26.748A16.387,16.387,0,0,1,44.122,10.344Zm0,18.748A25.779,25.779,0,1,1,18.344,54.87,25.761,25.761,0,0,1,44.122,29.092Zm0,3.515a1.172,1.172,0,1,0,1.172,1.172A1.172,1.172,0,0,0,44.122,32.607Zm-5.458.719A1.172,1.172,0,1,0,39.836,34.5,1.172,1.172,0,0,0,38.664,33.326Zm10.917,0A1.172,1.172,0,1,0,50.752,34.5,1.172,1.172,0,0,0,49.58,33.326Zm-16,2.108a1.172,1.172,0,1,0,1.172,1.172,1.172,1.172,0,0,0-1.172-1.172Zm21.092,0a1.172,1.172,0,1,0,1.172,1.172,1.172,1.172,0,0,0-1.172-1.172Zm-25.46,3.351a1.172,1.172,0,1,0,1.172,1.172A1.172,1.172,0,0,0,29.207,38.784Zm29.829,0a1.172,1.172,0,1,0,1.172,1.172A1.172,1.172,0,0,0,59.037,38.784Zm-33.18,4.369a1.172,1.172,0,1,0,1.172,1.172A1.172,1.172,0,0,0,25.857,43.153Zm36.53,0a1.172,1.172,0,1,0,1.172,1.172A1.172,1.172,0,0,0,62.387,43.153ZM44.122,46.668a5.877,5.877,0,0,0-5.859,5.859A5.706,5.706,0,0,0,40.607,57v4.9a3.515,3.515,0,1,0,7.031,0V57a5.706,5.706,0,0,0,2.344-4.47A5.877,5.877,0,0,0,44.122,46.668ZM23.749,48.24a1.172,1.172,0,1,0,1.172,1.172A1.172,1.172,0,0,0,23.749,48.24Zm40.746,0a1.172,1.172,0,1,0,1.172,1.172A1.172,1.172,0,0,0,64.495,48.24Zm-20.373.771a3.5,3.5,0,0,1,1.755,6.539l-.584.339V61.9a1.172,1.172,0,1,1-2.344,0V55.889l-.584-.339a3.5,3.5,0,0,1,1.755-6.539ZM23.031,53.7A1.172,1.172,0,1,0,24.2,54.87,1.172,1.172,0,0,0,23.031,53.7Zm42.183,0a1.172,1.172,0,1,0,1.172,1.172A1.172,1.172,0,0,0,65.214,53.7ZM23.749,59.157a1.172,1.172,0,1,0,1.172,1.172A1.172,1.172,0,0,0,23.749,59.157Zm40.746,0a1.172,1.172,0,1,0,1.172,1.172A1.172,1.172,0,0,0,64.495,59.157ZM25.857,64.244a1.172,1.172,0,1,0,1.172,1.172A1.172,1.172,0,0,0,25.857,64.244Zm36.53,0a1.172,1.172,0,1,0,1.172,1.172A1.172,1.172,0,0,0,62.387,64.244Zm-33.18,4.369a1.172,1.172,0,1,0,1.172,1.172A1.172,1.172,0,0,0,29.207,68.613Zm29.829,0a1.172,1.172,0,1,0,1.172,1.172A1.172,1.172,0,0,0,59.037,68.613Zm-25.46,3.351a1.172,1.172,0,1,0,1.172,1.172A1.172,1.172,0,0,0,33.576,71.964Zm21.092,0a1.172,1.172,0,1,0,1.172,1.172A1.172,1.172,0,0,0,54.668,71.964Zm-16,2.108a1.172,1.172,0,1,0,1.172,1.172A1.172,1.172,0,0,0,38.664,74.071Zm10.917,0a1.172,1.172,0,1,0,1.172,1.172A1.172,1.172,0,0,0,49.58,74.071Zm-5.458.719a1.172,1.172,0,1,0,1.172,1.172A1.172,1.172,0,0,0,44.122,74.79Z" transform="translate(-16 -8)" fill="#eb0e4c"/>
  <ellipse id="Ellipse_67" data-name="Ellipse 67" cx="13.5" cy="13" rx="13.5" ry="13" transform="translate(15.172 33.492)" fill="#fff"/>
  <path id="icons8_reset" d="M13.657,3A10.657,10.657,0,1,0,24.315,13.657h-1.64a9.019,9.019,0,1,1-1.46-4.919H16.937v1.64h6.558V3.82h-1.64V6.868A10.633,10.633,0,0,0,13.657,3Z" transform="translate(14.216 33.891)" fill="#eb0e4c"/>
</svg>
