<svg xmlns="http://www.w3.org/2000/svg" width="11.465" height="11.465" viewBox="0 0 11.465 11.465">
  <path id="icons8_edit" d="M13.238,3.969a1.932,1.932,0,0,0-1.37.575L4.411,12l-.029.147-.516,2.594-.147.693.693-.147L7,14.77l.147-.029,3.557-3.557,3.9-3.9a1.945,1.945,0,0,0-1.37-3.316Zm0,.9a1,1,0,0,1,.707.339.9.9,0,0,1,0,1.415l-.339.324-1.4-1.4.324-.339A1,1,0,0,1,13.238,4.868ZM11.544,6.209l1.4,1.4-5.7,5.7a3.213,3.213,0,0,0-1.4-1.4ZM5.237,12.678a2.232,2.232,0,0,1,1.238,1.238l-1.547.309Z" transform="translate(-3.719 -3.969)" fill="#fff"/>
</svg>
