<svg id="Component_9_1" data-name="Component 9 – 1" xmlns="http://www.w3.org/2000/svg" width="52.374" height="52.889" viewBox="0 0 52.374 52.889">
  <path id="Path_5209" data-name="Path 5209" d="M8,0H44a8,8,0,0,1,8,8V44a8,8,0,0,1-8,8S19,54,8,52s-8-3.582-8-8V8A8,8,0,0,1,8,0Z" transform="translate(0.374)" fill="#10c995"/>
  <path id="icons8_edit" d="M22.124,3.969a3.735,3.735,0,0,0-2.65,1.111L5.058,19.5,5,19.782,4,24.8l-.285,1.339,1.339-.285,5.015-1,.285-.057L24.774,10.379a3.761,3.761,0,0,0-2.65-6.411Zm0,1.738a1.943,1.943,0,0,1,1.368.655,1.739,1.739,0,0,1,0,2.735l-.655.627L20.13,7.017l.627-.655A1.943,1.943,0,0,1,22.124,5.707ZM18.848,8.3l2.707,2.707L10.528,22.033a6.212,6.212,0,0,0-2.707-2.707ZM6.653,20.807A4.316,4.316,0,0,1,9.047,23.2l-2.992.6Z" transform="translate(11.655 11.031)" fill="#fff"/>
</svg>
