<svg id="Component_11_1" data-name="Component 11 – 1" xmlns="http://www.w3.org/2000/svg" width="50" height="50" viewBox="0 0 50 50">
  <circle id="Ellipse_72" data-name="Ellipse 72" cx="25" cy="25" r="25" fill="#fff"/>
  <path id="Icon_material-my-location" data-name="Icon material-my-location" d="M11.379,7.787a3.592,3.592,0,1,0,3.592,3.592A3.591,3.591,0,0,0,11.379,7.787Zm8.029,2.694A8.078,8.078,0,0,0,12.277,3.35V1.5h-1.8V3.35A8.078,8.078,0,0,0,3.35,10.481H1.5v1.8H3.35a8.078,8.078,0,0,0,7.131,7.131v1.85h1.8v-1.85a8.078,8.078,0,0,0,7.131-7.131h1.85v-1.8Zm-8.029,7.185a6.287,6.287,0,1,1,6.287-6.287A6.282,6.282,0,0,1,11.379,17.666Z" transform="translate(13.5 13.5)" fill="#eb0e4c"/>
</svg>
