<svg xmlns="http://www.w3.org/2000/svg" width="149" height="138" viewBox="0 0 149 138">
    <g fill="none" fill-rule="evenodd">
        <path fill="#000000" fill-rule="nonzero" d="M83.618 51.58h4.103l-7.657-12.996a3.606 3.606 0 0 1-.383-2.783 3.71 3.71 0 0 1 1.78-2.278 3.91 3.91 0 0 1 1.929-.507 3.854 3.854 0 0 1 3.33 1.875l9.834 16.688h4.103l-10.89-18.483a7.446 7.446 0 0 0-10.046-2.65 7.217 7.217 0 0 0-3.455 4.44 7.114 7.114 0 0 0 .752 5.493l6.6 11.2z"/>
        <path fill="#CF7C6B" fill-rule="nonzero" d="M45.964 86.054v10.608a1.768 1.768 0 0 0 3.536 0V86.054a1.768 1.768 0 0 0-3.536 0z"/>
        <path fill="#000000" fill-rule="nonzero" d="M54.804 86.054v10.608a1.768 1.768 0 0 0 3.535 0V86.054a1.768 1.768 0 0 0-3.535 0z"/>
        <path fill="#CF7C6B" fill-rule="nonzero" d="M67.179 96.662V86.054a1.768 1.768 0 0 0-3.536 0v10.608a1.768 1.768 0 0 0 3.536 0z"/>
        <path fill="#000000" fill-rule="nonzero" d="M76.018 96.662V86.054a1.768 1.768 0 0 0-3.536 0v10.608a1.768 1.768 0 0 0 3.536 0zm49.5-41.547H66.906l-2.083 3.536h60.695a1.77 1.77 0 0 1 1.768 1.768v5.304h-66.63l-2.083 3.536h59.21l-4.58 19.684a21.314 21.314 0 0 1 3.111 2.215l5.098-21.9h6.758a2.655 2.655 0 0 0 2.651-2.651v-6.188a5.31 5.31 0 0 0-5.303-5.304zm-90.16 16.796a8.84 8.84 0 1 0 17.678 0c0-.069-.009-.135-.01-.203l18.46-31.33a7.113 7.113 0 0 0 .751-5.492 7.222 7.222 0 0 0-3.454-4.44 7.448 7.448 0 0 0-10.045 2.65L40.627 63.83a8.848 8.848 0 0 0-5.27 8.08zm26.425-37.02a3.855 3.855 0 0 1 3.33-1.875c.677 0 1.341.174 1.93.507a3.712 3.712 0 0 1 1.78 2.278c.253.941.116 1.945-.382 2.783L51.62 67.129a8.842 8.842 0 0 0-6.473-4.005l16.636-28.233zM49.5 71.91a5.304 5.304 0 1 1-10.607 0 5.304 5.304 0 0 1 10.607 0z"/>
        <circle cx="44.196" cy="71.91" r="1.768" fill="#CF7C6B" fill-rule="nonzero"/>
        <path fill="#000000" fill-rule="nonzero" d="M91.929 84.286c-.977 0-1.768.792-1.768 1.768v4c1.11-.8 2.293-1.49 3.535-2.063v-1.937c0-.976-.791-1.768-1.767-1.768z"/>
        <path fill="#CF7C6B" fill-rule="nonzero" d="M83.266 98.412c.457-.99.988-1.944 1.591-2.852v-9.506a1.768 1.768 0 0 0-3.536 0v10.608c0 .976.792 1.767 1.768 1.767.06-.002.119-.008.177-.017z"/>
        <path fill="#000000" fill-rule="nonzero" d="M102.536 89.59a17.68 17.68 0 1 0 17.678 17.68c-.01-9.76-7.919-17.67-17.678-17.68zm0 31.823a14.144 14.144 0 1 1 14.143-14.144c-.01 7.807-6.336 14.134-14.143 14.144z"/>
        <path fill="#CF7C6B" fill-rule="nonzero" d="M100.768 84.286c-.977 0-1.768.792-1.768 1.768v.3a21.249 21.249 0 0 1 3.536-.3c0-.976-.792-1.768-1.768-1.768z"/>
        <circle cx="1.768" cy="123.181" r="1.768" fill="#000000" fill-rule="nonzero"/>
        <path fill="#000000" fill-rule="nonzero" d="M9.723 121.413H7.071a1.768 1.768 0 0 0 0 3.535h2.652a1.768 1.768 0 1 0 0-3.535zm131.706 0h-2.652a1.768 1.768 0 1 0 0 3.535h2.652a1.768 1.768 0 1 0 0-3.535z"/>
        <circle cx="146.732" cy="123.181" r="1.768" fill="#000000" fill-rule="nonzero"/>
        <path fill="#CF7C6B" fill-rule="nonzero" d="M104.44 128.484h-7.344a1.774 1.774 0 0 0 0 3.536h7.344a1.774 1.774 0 0 0 0-3.536zm-53.036 0H44.06a1.774 1.774 0 0 0 0 3.536h7.344a1.774 1.774 0 0 0 0-3.536zm40.525 0H56.57a1.768 1.768 0 1 0 0 3.536h14.09v1.768h-7.018a1.768 1.768 0 0 0 0 3.535H85.74a1.768 1.768 0 1 0 0-3.535H77.84v-1.768h14.09a1.768 1.768 0 0 0 0-3.536zm-7.752-10.607H42.022l-.822-3.536H82.54a20.38 20.38 0 0 0 1.636 3.536z"/>
        <path fill="#000000" fill-rule="nonzero" d="M135.241 123.18a1.906 1.906 0 0 1-2.015 1.768H15.274a1.783 1.783 0 1 1 0-3.535h23.964c-.01-.01-.01-.018-.018-.027l-.053-.177-12.083-51.948H20.33a2.66 2.66 0 0 1-2.651-2.652v-6.187a5.308 5.308 0 0 1 5.303-5.304H41.66l-2.087 3.536h-16.59a1.767 1.767 0 0 0-1.769 1.768v5.303h12.278a12.02 12.02 0 0 0-1.379 3.536h-1.396L41.2 114.34l.822 3.536.566 2.43c.266.666.91 1.103 1.626 1.106h89.012a1.906 1.906 0 0 1 2.015 1.768zM84.857 23.298a2.652 2.652 0 1 0 0-5.304 2.652 2.652 0 0 0 0 5.304zm0-3.978a1.326 1.326 0 1 1 0 2.652 1.326 1.326 0 0 1 0-2.652zM53.921 4.989a1.768 1.768 0 1 0 0 3.536 1.768 1.768 0 0 0 0-3.536zm0 2.652a.884.884 0 1 1 0-1.768.884.884 0 0 1 0 1.768zm61.874 35.322a1.768 1.768 0 1 0 0 3.536 1.768 1.768 0 0 0 0-3.536zm0 2.652a.884.884 0 1 1 0-1.768.884.884 0 0 1 0 1.768zM114.91.57a1.768 1.768 0 1 0 0 3.536 1.768 1.768 0 0 0 0-3.536zm0 2.652a.884.884 0 1 1 0-1.768.884.884 0 0 1 0 1.768zM15.296 18.877a1.768 1.768 0 1 0-3.536 0 1.768 1.768 0 0 0 3.536 0zm-2.652 0a.884.884 0 1 1 1.768 0 .884.884 0 0 1-1.768 0z"/>
        <path fill="#CF7C6B" fill-rule="nonzero" d="M9.624 55.128L10.94 53.4l-.83-.47-.845 1.935h-.027l-.857-1.922-.845.484 1.3 1.688v.027l-2.033-.262v.94l2.047-.263v.028l-1.314 1.687.788.498.9-1.95h.027l.83 1.936.872-.498-1.328-1.66v-.027l2.088.248v-.94l-2.088.276zM139.451 18.128l-.756.972.454.287.518-1.123h.015l.478 1.114.502-.286-.764-.956v-.015l1.202.143v-.542l-1.202.159v-.016l.756-.995-.477-.27-.486 1.114h-.016l-.494-1.107-.486.279.75.972v.016l-1.173-.152v.542l1.18-.151zM139.686 46.682v-.922l-2.048.271v-.027l1.29-1.695-.815-.462-.827 1.899h-.028l-.84-1.885-.829.474 1.276 1.656v.027l-1.994-.258v.922l2.007-.257v.027l-1.289 1.655.774.489.882-1.914h.026l.815 1.9.854-.488-1.302-1.629v-.027zM42.739 32.828l1.112-1.462-.702-.398-.713 1.637h-.024l-.726-1.626-.714.41 1.1 1.428v.024l-1.72-.223v.795l1.732-.221v.023l-1.112 1.427.666.422.762-1.65h.023l.702 1.637.737-.42-1.123-1.405v-.023l1.767.21v-.795l-1.767.233z"/>
        <path stroke="#FF2B49" stroke-linecap="round" stroke-linejoin="round" stroke-width="2.492" d="M109 101l-12 12M97 101l12 12"/>
    </g>
</svg>
