<svg id="Group_2832" data-name="Group 2832" xmlns="http://www.w3.org/2000/svg" width="40" height="40" viewBox="0 0 40 40">
  <g id="Group_2816" data-name="Group 2816">
    <rect id="Rectangle_2016" data-name="Rectangle 2016" width="40" height="40" rx="5" fill="#3a5998"/>
    <path id="facebook-square" d="M16.354,33.752V46.6A1.753,1.753,0,0,1,14.6,48.354H11.488V41.885H13.7l.318-2.468h-2.53V37.841c0-.715.2-1.2,1.223-1.2h1.307v-2.2a17.572,17.572,0,0,0-1.906-.1A2.975,2.975,0,0,0,8.936,37.6v1.822H6.717v2.468H8.94v6.465H1.752A1.753,1.753,0,0,1,0,46.6V33.752A1.753,1.753,0,0,1,1.752,32H14.6A1.753,1.753,0,0,1,16.354,33.752Z" transform="translate(12 -20)" fill="#fff"/>
  </g>
</svg>
