<svg xmlns="http://www.w3.org/2000/svg" width="18.173" height="15.901" viewBox="0 0 18.173 15.901">
  <path id="icons8_heart" d="M7.059,3.875A5.137,5.137,0,0,0,3.42,5.269,5.037,5.037,0,0,0,2,8.934c0,2.5,1.533,4.366,3.278,5.937a55.258,55.258,0,0,1,5.163,4.595.819.819,0,0,0,.62.31h.052a.819.819,0,0,0,.62-.31,55.244,55.244,0,0,1,5.163-4.595c1.746-1.571,3.278-3.436,3.278-5.937a5.055,5.055,0,0,0-1.446-3.666,5.075,5.075,0,0,0-3.614-1.394,5.286,5.286,0,0,0-3.382,1.471,4.331,4.331,0,0,0-.645.7,4.188,4.188,0,0,0-.645-.7A5.278,5.278,0,0,0,7.059,3.875Zm0,1.652a3.913,3.913,0,0,1,2.3,1.084,7.894,7.894,0,0,1,1.058,1.11.825.825,0,0,0,1.342,0,7.667,7.667,0,0,1,1.058-1.11,3.912,3.912,0,0,1,2.3-1.084,3.449,3.449,0,0,1,2.478.929,3.3,3.3,0,0,1,.929,2.478c0,1.829-1.107,3.23-2.736,4.7-1.442,1.3-3.2,2.633-4.7,4.208-1.5-1.581-3.252-2.907-4.7-4.208-1.629-1.468-2.736-2.869-2.736-4.7a3.289,3.289,0,0,1,.9-2.478A3.517,3.517,0,0,1,7.059,5.527Z" transform="translate(-2 -3.875)" fill="#fff"/>
</svg>
