<svg xmlns="http://www.w3.org/2000/svg" width="18" height="18" viewBox="0 0 18 18">
    <path fill="#404553" fill-rule="evenodd" d="M15 0a.83.83 0 0 0-.818.844v2.651c-1.257.368-2.181 1.56-2.181 2.974 0 1.413.924 2.605 2.181 2.973v7.715A.83.83 0 0 0 15 18a.83.83 0 0 0 .818-.843V9.442C17.075 9.074 18 7.882 18 6.47c0-1.413-.925-2.606-2.182-2.974V.844A.831.831 0 0 0 15 0zm-1.364 6.469c0-.775.612-1.406 1.364-1.406.752 0 1.364.63 1.364 1.406 0 .775-.612 1.406-1.364 1.406-.752 0-1.364-.63-1.364-1.406zM9 0a.832.832 0 0 0-.818.844v7.713C6.925 8.926 6 10.118 6 11.531c0 1.413.924 2.606 2.18 2.974v2.652c0 .466.367.843.819.843a.831.831 0 0 0 .819-.843v-2.652c1.257-.368 2.182-1.56 2.182-2.974 0-1.413-.925-2.605-2.182-2.974V.844A.832.832 0 0 0 9 0zM7.636 11.531c0-.775.612-1.405 1.364-1.405.752 0 1.364.63 1.364 1.405 0 .776-.612 1.406-1.364 1.406-.752 0-1.364-.63-1.364-1.406zM3 0a.832.832 0 0 0-.818.844v2.651C.925 3.863 0 5.055 0 6.47c0 1.413.925 2.605 2.182 2.973v7.715c0 .466.366.843.818.843a.83.83 0 0 0 .818-.843V9.442c1.257-.368 2.183-1.56 2.183-2.973 0-1.413-.926-2.606-2.183-2.974V.844A.831.831 0 0 0 3 0zM1.637 6.469c0-.775.611-1.406 1.363-1.406s1.364.63 1.364 1.406c0 .775-.612 1.406-1.364 1.406-.752 0-1.363-.63-1.363-1.406z"/>
</svg>
