<svg xmlns="http://www.w3.org/2000/svg" width="45.387" height="49" viewBox="0 0 45.387 49">
  <g id="forgot" transform="translate(-15.937)">
    <g id="Group_1385" transform="translate(15.937)">
      <g id="Group_1384"  transform="translate(0)">
        <circle id="Ellipse_298"  cx="1.5" cy="1.5" r="1.5" transform="translate(23 31)" fill="#CF7C6B"/>
        <path id="Path_7268"  d="M47.038,44.618H23.5a3.786,3.786,0,0,1-3.781-3.781v-15.5A3.786,3.786,0,0,1,23.5,21.553H50.724a3.849,3.849,0,0,1,1.044.116,1.891,1.891,0,0,0,1.041-3.635,7.513,7.513,0,0,0-2.086-.262H48.452V11.1a11.346,11.346,0,0,0-22.687,0v6.668H23.5a7.571,7.571,0,0,0-7.562,7.562v15.5A7.571,7.571,0,0,0,23.5,48.4H47.038a1.891,1.891,0,0,0,0-3.781ZM29.546,11.1a7.566,7.566,0,0,1,15.125,0v6.668H29.546Z" transform="translate(-15.937)" fill="#CF7C6B"/>
        <circle id="Ellipse_299"  cx="1.5" cy="1.5" r="1.5" transform="translate(16 31)" fill="#CF7C6B"/>
        <path id="Path_7269"  d="M367.428,267.637a6.714,6.714,0,0,0-13.428.077,1.891,1.891,0,0,0,3.781,0,2.933,2.933,0,1,1,5.866,0q0,.026,0,.051a2.932,2.932,0,0,1-1.783,2.65,5.029,5.029,0,0,0-3.041,4.641v1.635a1.891,1.891,0,1,0,3.781,0v-1.635a1.252,1.252,0,0,1,.744-1.164,6.708,6.708,0,0,0,4.08-6.18C367.429,267.688,367.429,267.662,367.428,267.637Z" transform="translate(-322.043 -236.327)" fill="#CF7C6B"/>
        <ellipse id="Ellipse_300"  cx="2" cy="2.5" rx="2" ry="2.5" transform="translate(37 44)" fill="#CF7C6B"/>
        <ellipse id="Ellipse_301"  cx="2.5" cy="1.5" rx="2.5" ry="1.5" transform="translate(8 31)" fill="#CF7C6B"/>
      </g>
    </g>
  </g>
</svg>
