<?xml version="1.0" encoding="utf-8"?>
<!-- Svg Vector Icons : http://www.onlinewebfonts.com/icon -->
<!DOCTYPE svg PUBLIC "-//W3C//DTD SVG 1.1//EN" "http://www.w3.org/Graphics/SVG/1.1/DTD/svg11.dtd">
<svg version="1.1" xmlns="http://www.w3.org/2000/svg" xmlns:xlink="http://www.w3.org/1999/xlink" x="0px" y="0px" viewBox="0 0 1000 1000" enable-background="new 0 0 1000 1000" xml:space="preserve">
<metadata> Svg Vector Icons : http://www.onlinewebfonts.com/icon </metadata>
<g><path d="M656,809.8c6.4-23.1,9.6-47.8,9.6-74.2c0-31.4-5.5-61.8-16.4-91c-10.9-29.3-27.3-51.9-49.2-67.8c-21.9-16-46.8-23.9-74.9-23.9c-13.5,0-26.5,2-38.9,5.9c-12.3,3.9-24,9.8-35.1,17.6c-11,7.8-21.1,18.4-30.4,31.8c-9.2,13.4-17,31.7-23.2,54.8s-9.3,48.9-9.3,77.3c0,31.8,5.1,62.2,15.2,91.4c10.1,29.2,26,51.6,47.6,67.2c21.6,15.6,46.7,23.4,75.2,23.4c14,0,26.7-1.9,37.8-5.6c11.1-3.7,23.6-10.2,37.3-19.3l36.1,41.6l31.6-40.4l-34.2-38.8C644.4,842.9,651.4,826.2,656,809.8L656,809.8z M601.7,778.2c-1.8,9.4-4.9,20-9.6,31.8l-28-32.3L533,817.5l26.6,32.1c-6.4,3.5-12,5.9-16.8,7.3c-4.8,1.4-9.9,2-15.6,2c-16.4,0-30.9-5.5-43.3-16.5c-12.4-11-21.4-26.1-27-45.4c-5.6-19.3-8.3-39.1-8.3-59.4c0-22.7,3.2-43.9,9.6-63.7c3.8-11.5,9.1-21.5,15.8-30.1c6.7-8.6,14.3-15.4,22.7-20.2c8.5-4.9,18.3-7.3,29.4-7.3c16.6,0,31.1,5.4,43.5,16.3c12.4,10.8,21.5,25.9,27.1,45.2c5.7,19.3,8.5,39.1,8.5,59.3C605.3,751.7,604.1,765.5,601.7,778.2L601.7,778.2z"/><path d="M902.7,561.7L851,837.1h-1l-51.7-275.4h-86.9v351.7H767V619.3h0.7l52.6,294.1H879l54.8-294.1h0.7v294.1H990V561.7H902.7z"/><path d="M803.2,17.1c-6.1-5.8-21-8.5-29.2-6.3c-4.6,1.2-356.5,100.3-493.2,411C168,330.6,45.5,300,39.9,298.6c-8.4-2-17.2,0.5-23.1,6.7c-6,6.2-8.2,15.1-5.9,23.4c5,17.9,123,439.5,260.7,595.9c27,48.5,60.4,65.4,83.6,65.4h2.4c19,0,37.7-5.5,55.9-15.3c9-3.6,15.4-12.3,15.4-22.7c0-13.5-11-24.5-24.5-24.5c-4.3,0-4.4-0.3-11.7,3.4c-7.3,3.6-15.5,6.4-21,6.7c-12.1,0.5-19.8-7.5-29.3-15.7c-20.1-17.6-37.8-49.2-42.9-63.5c-8.6-26.6-16.3-61.4-20.4-106.2C237.7,292.6,631.4,115.6,758,70.1c-31.1,140-89.5,361.5-116.8,426.9c-3,7.2-15.1,32.5-15.1,38.7c0,13.5,11,24.5,24.5,24.5c9.7,0,17.8-3.3,21.9-14C739.4,369.6,799.2,93.6,808.8,47.7C810.5,39.5,809.3,22.9,803.2,17.1L803.2,17.1z M229.2,757.8c0.3,3.4,0.6,6.8,1,10.1C157.1,629.1,96.1,442.7,70.5,359.1c45.6,16.7,120.9,50.2,189.4,108C230.2,556.5,219.8,654.2,229.2,757.8L229.2,757.8z"/></g>
</svg>