<svg id="Group_2834" data-name="Group 2834" xmlns="http://www.w3.org/2000/svg" width="40" height="40" viewBox="0 0 40 40">
  <rect id="Rectangle_2018" data-name="Rectangle 2018" width="40" height="40" rx="5" fill="#4285f4"/>
  <path id="Icon_ionic-logo-google" data-name="Icon ionic-logo-google" d="M19.951,10.449l-.084-.358H12.093v3.29h4.644a4.649,4.649,0,0,1-4.548,3.5,5.439,5.439,0,0,1-3.66-1.458A5.225,5.225,0,0,1,6.971,11.73,5.389,5.389,0,0,1,8.5,8.046a5.207,5.207,0,0,1,3.636-1.422,4.742,4.742,0,0,1,3.093,1.205L17.569,5.5a8.273,8.273,0,0,0-5.508-2.121h0A8.515,8.515,0,0,0,6.035,5.833a8.48,8.48,0,0,0-2.378,5.9A8.4,8.4,0,0,0,5.942,17.54a8.721,8.721,0,0,0,6.287,2.551,7.756,7.756,0,0,0,5.649-2.374,8.34,8.34,0,0,0,2.169-5.777A9.62,9.62,0,0,0,19.951,10.449Z" transform="translate(8.344 8.618)" fill="#fff"/>
</svg>
