<svg xmlns="http://www.w3.org/2000/svg" width="18" height="18" viewBox="0 0 18 18">
    <path fill="#404553" fill-rule="nonzero" d="M6.564 9.41a1.89 1.89 0 0 1 1.89 1.89v4.673c0 1.044-.846 1.89-1.89 1.89H1.891A1.89 1.89 0 0 1 0 15.974V11.3a1.89 1.89 0 0 1 1.89-1.89h4.674zm9.273 0a1.89 1.89 0 0 1 1.89 1.89v4.673c0 1.044-.846 1.89-1.89 1.89h-4.674a1.89 1.89 0 0 1-1.89-1.89V11.3a1.89 1.89 0 0 1 1.89-1.89h4.674zM6.564 10.5H1.891a.8.8 0 0 0-.8.8v4.673a.8.8 0 0 0 .8.8h4.673a.8.8 0 0 0 .8-.8V11.3a.8.8 0 0 0-.8-.8zm9.273 0h-4.674a.8.8 0 0 0-.8.8v4.673a.8.8 0 0 0 .8.8h4.674a.8.8 0 0 0 .8-.8V11.3a.8.8 0 0 0-.8-.8zM6.564.136a1.89 1.89 0 0 1 1.89 1.89V6.7c0 1.044-.846 1.89-1.89 1.89H1.891A1.89 1.89 0 0 1 0 6.7V2.027A1.89 1.89 0 0 1 1.89.137h4.674zm9.273 0a1.89 1.89 0 0 1 1.89 1.89V6.7c0 1.044-.846 1.89-1.89 1.89h-4.674a1.89 1.89 0 0 1-1.89-1.89V2.027a1.89 1.89 0 0 1 1.89-1.89h4.674zM6.564 1.227H1.891a.8.8 0 0 0-.8.8V6.7a.8.8 0 0 0 .8.8h4.673a.8.8 0 0 0 .8-.8V2.027a.8.8 0 0 0-.8-.8zm9.273 0h-4.674a.8.8 0 0 0-.8.8V6.7a.8.8 0 0 0 .8.8h4.674a.8.8 0 0 0 .8-.8V2.027a.8.8 0 0 0-.8-.8zM2.272 4.97a.275.275 0 0 1-.387.387.285.285 0 0 1-.08-.193c0-.071.03-.142.08-.194.103-.1.283-.1.387 0zm2.533-2.65a.273.273 0 0 1 0 .545H3.106c-.425 0-.651.469-.651.872v.491a.273.273 0 0 1-.546 0v-.491c0-.756.504-1.418 1.197-1.418h1.7z"/>
</svg>
