<svg xmlns="http://www.w3.org/2000/svg" width="24.862" height="26.934" viewBox="0 0 24.862 26.934">
  <path id="icons8_home" d="M29.136,30.934H22.92a1.726,1.726,0,0,1-1.727-1.727V22.992a1.381,1.381,0,0,0-1.381-1.381H17.05a1.381,1.381,0,0,0-1.381,1.381v6.216a1.726,1.726,0,0,1-1.727,1.727H7.727A1.726,1.726,0,0,1,6,29.208V16.026a5.181,5.181,0,0,1,1.974-4.07L17.79,4.222a1.038,1.038,0,0,1,1.282,0l9.817,7.734a5.179,5.179,0,0,1,1.974,4.068V29.208A1.726,1.726,0,0,1,29.136,30.934Z" transform="translate(-6 -4)" fill="#fe0048"/>
</svg>
