<svg xmlns="http://www.w3.org/2000/svg" width="26.134" height="30.53" viewBox="0 0 26.134 30.53">
  <path id="icons8-cutting-board" d="M21.047,0a2.62,2.62,0,0,0-2.624,2.385V6.2c0,.455-.022.477-.477.477H14.607a2.832,2.832,0,0,0-2.862,2.862V27.624a2.917,2.917,0,0,0,2.921,2.906H27.429a2.917,2.917,0,0,0,2.921-2.906V9.541a2.832,2.832,0,0,0-2.862-2.862H24.148c-.455,0-.477-.022-.477-.477V2.385A2.572,2.572,0,0,0,21.284.011C21.2,0,21.125,0,21.047,0Zm0,.954a1.263,1.263,0,0,1,.143.007,1.645,1.645,0,0,1,1.526,1.424V6.2a1.248,1.248,0,0,0,1.431,1.431h3.339A1.866,1.866,0,0,1,29.4,9.541V27.624a1.962,1.962,0,0,1-1.967,1.952H14.666A1.962,1.962,0,0,1,12.7,27.624V9.541a1.866,1.866,0,0,1,1.908-1.908h3.339A1.248,1.248,0,0,0,19.378,6.2V2.385A1.671,1.671,0,0,1,21.047.954Zm-.031.954a.7.7,0,0,0-.685.716.685.685,0,1,0,1.369,0A.7.7,0,0,0,21.017,1.908ZM5.546,5.724a.478.478,0,0,0-.479.477V20.513a.477.477,0,0,0-.476.45l-.372,6.681a2.282,2.282,0,1,0,4.558,0L8.4,20.963a.477.477,0,0,0-.476-.45v-.571a2.154,2.154,0,0,0,.814-.523A2.177,2.177,0,0,0,9.36,17.65v-6.2c0-2.758-1.594-5.214-3.707-5.711A.477.477,0,0,0,5.546,5.724Zm.475,1.156a5.149,5.149,0,0,1,2.385,4.568v6.2a1.271,1.271,0,0,1-.337,1.093,1.064,1.064,0,0,1-.617.337.477.477,0,0,0-.477.477v.954H6.021ZM15.9,9.064a1.794,1.794,0,0,0-1.774,1.81V26.335a1.794,1.794,0,0,0,1.774,1.81H26.19a1.794,1.794,0,0,0,1.774-1.81V10.874a1.794,1.794,0,0,0-1.774-1.81Zm0,.954H26.19a.84.84,0,0,1,.82.856V26.335a.84.84,0,0,1-.82.856H15.9a.84.84,0,0,1-.82-.856V10.874A.84.84,0,0,1,15.9,10.018Zm8.721.954a.477.477,0,1,0,0,.954h.954a.477.477,0,0,0,0-.954Zm0,2.385a.477.477,0,1,0,0,.954h.954a.477.477,0,0,0,0-.954Zm0,2.385a.477.477,0,1,0,0,.954h.954a.477.477,0,0,0,0-.954Zm0,2.385a.477.477,0,1,0,0,.954h.954a.477.477,0,0,0,0-.954Zm0,2.385a.477.477,0,1,0,0,.954h.954a.477.477,0,0,0,0-.954Zm-19.108.954h1.96L7.824,27.7a1.316,1.316,0,0,1-.361.987,1.36,1.36,0,0,1-1.929,0,1.316,1.316,0,0,1-.362-.987ZM24.625,22.9a.477.477,0,1,0,0,.954h.954a.477.477,0,0,0,0-.954Zm0,2.385a.477.477,0,1,0,0,.954h.954a.477.477,0,0,0,0-.954Z" transform="translate(-4.215)" fill="#fff"/>
</svg>
