<svg xmlns="http://www.w3.org/2000/svg" width="75.5" height="79.095" viewBox="0 0 75.5 79.095">
  <path id="kitchens_no_result" d="M9.393,3A1.8,1.8,0,0,0,7.6,4.8V10.19H75.9V4.8a1.8,1.8,0,0,0-1.8-1.8ZM7.6,13.786S4,25.885,4,26.369a5.393,5.393,0,0,0,10.786,0,5.393,5.393,0,0,0,10.786,0,5.393,5.393,0,0,0,10.786,0,5.393,5.393,0,1,0,10.786,0,5.393,5.393,0,0,0,10.786,0,5.393,5.393,0,0,0,10.786,0,5.393,5.393,0,1,0,10.786,0c0-.484-3.6-12.583-3.6-12.583ZM5.8,34.62v31.3A5.409,5.409,0,0,0,11.19,71.31a11.068,11.068,0,0,0,2.7,7.373A10.617,10.617,0,0,0,21.976,82.1,10.813,10.813,0,0,0,32.762,71.31H65.119v4.08a3.591,3.591,0,1,0,3.6,0V71.31h3.6A5.409,5.409,0,0,0,77.7,65.917V34.62a9.179,9.179,0,0,1-3.6.737V47.94H9.393V35.357A9.179,9.179,0,0,1,5.8,34.62Zm16.179,29.5a7.19,7.19,0,0,1,0,14.381,6.783,6.783,0,0,1-5.4-2.2,7.824,7.824,0,0,1,0-9.971A6.783,6.783,0,0,1,21.976,64.119Z" transform="translate(-4 -3)" fill="#afafaf"/>
</svg>
