<svg xmlns="http://www.w3.org/2000/svg" width="19" height="18" viewBox="0 0 19 18">
    <path fill="#404553" fill-rule="nonzero" d="M7.01 7.291H1.071c-.047-.004-.038-.002.024.006-.004.004-.058-.012-.067-.014-.008-.002-.064-.014-.064-.02l.046.02-.046-.024c-.008-.004-.067-.034-.067-.042l.04.03L.9 7.21c.002.002-.036-.037-.036-.039a.543.543 0 0 1-.026-.05c-.018-.04-.016-.033.008.024-.006 0-.022-.07-.024-.077a.202.202 0 0 1-.01-.054l.008.052C.817 7.05.817 7.03.817 7.011v-.013-.092-.435-3.353-1.496-.424-.093-.01-.029C.82 1.03.819 1.03.815 1.064l-.004.027c.002-.019.006-.037.01-.055C.823 1.028.839.96.845.96c-.024.055-.026.063-.008.025A.54.54 0 0 1 .863.937L.877.915c.02-.028.02-.028 0-.002l-.016.02A.67.67 0 0 1 .897.895L.915.877C.948.848.942.852.895.889.895.88.954.85.962.846L.986.834c.04-.018.032-.016-.024.008.012 0 .036-.012.05-.016.008-.002.077-.024.081-.018-.063.008-.07.01-.024.006h5.275c.222 0 .446-.004.668 0h.028c.047.004.039.002-.024-.006.004-.006.073.016.08.018l.027.008a.355.355 0 0 0-.022-.01c.004-.004.052.028.058.03.009.004.055.029.055.037l-.04-.03.038.036.018.018c.028.032.024.026-.012-.02.014 0 .048.079.056.09.035.055-.016-.024-.008-.024.006 0 .023.071.025.077l.006.026c.008.045.006.037-.002-.026a.53.53 0 0 1 .002.057v3.439c0 .822.01 1.644 0 2.466v.039c-.004.046-.002.038.006-.024.006.004-.016.072-.018.08-.002.01-.037.09-.008.029.028-.063-.01.016-.015.024-.004.008-.034.067-.042.067l.03-.04-.036.038-.018.018c-.033.028-.026.024.02-.012a.21.21 0 0 1-.044.03.351.351 0 0 1-.071.038l.046-.02a.487.487 0 0 1-.05.016c-.008.002-.077.024-.08.018l.052-.008c-.02-.002-.039-.002-.059-.002-.212.004-.414.182-.404.404.01.216.178.408.404.404A1.105 1.105 0 0 0 8.1 7.01c.002-.07 0-.136 0-.204V5.522 1.955c0-.285.004-.57 0-.854A1.108 1.108 0 0 0 7.36.059 1.398 1.398 0 0 0 6.884 0H1.143C.823 0 .506.111.29.357a1.16 1.16 0 0 0-.283.792v5.757c0 .208.027.405.12.595.181.374.579.592.986.596.872.006 1.746 0 2.618 0h3.277c.212 0 .414-.186.404-.404a.408.408 0 0 0-.402-.402zm0 2.606H1.113a1.111 1.111 0 0 0-1.037.715c-.11.28-.069.642-.069.939V16.855c0 .307.1.602.32.822.221.222.516.319.825.319h5.305c.341 0 .704.036 1.023-.11.386-.175.616-.579.62-.995v-.285-3.26c0-.785.014-1.57 0-2.357a1.106 1.106 0 0 0-1.09-1.092c-.212-.004-.414.19-.404.404.01.222.178.4.404.404h.028c.047.004.039.002-.024-.006.004-.006.073.016.08.018l.027.008a.355.355 0 0 0-.022-.01c.004-.004.052.028.058.03.009.004.055.028.055.036l-.04-.03.038.036.018.019c.028.032.024.026-.012-.02.014 0 .048.078.056.09.035.055-.016-.024-.008-.024.006 0 .023.07.025.077l.006.026c.008.045.006.036-.002-.026a.53.53 0 0 1 .002.056v5.096c0 .27.004.54 0 .81v.039c-.004.046-.002.038.006-.025.006.004-.016.073-.018.081-.002.01-.037.089-.009.028.029-.062-.022.037-.028.047l-.014.022c-.024.034-.02.028.014-.018.002.004-.05.052-.054.056-.059.065.074-.042 0 .002a.332.332 0 0 0-.045.029l-.024.012c-.04.018-.032.016.024-.008 0 .006-.07.022-.076.024l-.027.006c-.044.008-.036.006.027-.002-.008-.004-.045.002-.057.002-.064.002-.131 0-.196 0H1.073c-.095.002.087.022-.002.002a2.127 2.127 0 0 1-.053-.012l-.026-.008a.355.355 0 0 0 .022.01.351.351 0 0 1-.07-.038c-.008-.004-.014-.01-.022-.015-.035-.024-.029-.02.018.015-.004.002-.053-.05-.057-.055-.046-.042.022.02.012.02-.014 0-.048-.079-.056-.09-.047-.075.02.084 0-.003l-.02-.078c-.019-.063.01.028.002.026-.002 0-.002-.057-.002-.057v-.014-.097-1.115-3.512-1.077-.09-.037c-.002-.083 0 .028-.006.024-.007-.004.016-.072.018-.08l.008-.027a.355.355 0 0 0-.01.023c-.006-.006.046-.083.052-.093.04-.067-.012.022-.014.018s.05-.053.055-.057c.058-.064-.075.043 0-.002l.068-.04c.075-.047-.085.02.002 0l.053-.014.026-.006c.044-.008.036-.006-.026.002 0-.002.056-.002.056-.002h5.913c.212 0 .414-.186.404-.404-.014-.22-.182-.406-.408-.406zM9.823 2.59H17.514c.356 0 .71.01 1.066 0h.016c.212 0 .414-.185.404-.404a.412.412 0 0 0-.404-.404H10.905c-.355 0-.71-.01-1.066 0h-.016c-.212 0-.413.186-.403.404.01.219.177.404.403.404zm5.603 2.917H9.824c-.213 0-.414.186-.404.404.01.218.177.404.403.404h5.602c.212 0 .414-.186.404-.404a.412.412 0 0 0-.403-.404zm-5.603 6.98H17.514c.356 0 .71.01 1.066 0h.016c.212 0 .414-.186.404-.404a.412.412 0 0 0-.404-.404H10.905c-.355 0-.71-.01-1.066 0h-.016c-.212 0-.413.186-.403.404.01.218.177.404.403.404zm5.603 2.917H9.824c-.213 0-.414.185-.404.404.01.218.177.404.403.404h5.602c.212 0 .414-.186.404-.404a.412.412 0 0 0-.403-.404z"/>
</svg>
