<svg xmlns="http://www.w3.org/2000/svg" width="15.306" height="15.306" viewBox="0 0 15.306 15.306">
  <path id="Icon_material-my-location" data-name="Icon material-my-location" d="M9.153,6.37a2.783,2.783,0,1,0,2.783,2.783A2.782,2.782,0,0,0,9.153,6.37Zm6.22,2.087A6.257,6.257,0,0,0,9.849,2.933V1.5H8.457V2.933A6.257,6.257,0,0,0,2.933,8.457H1.5V9.849H2.933a6.257,6.257,0,0,0,5.524,5.524v1.433H9.849V15.372a6.257,6.257,0,0,0,5.524-5.524h1.433V8.457Zm-6.22,5.566a4.87,4.87,0,1,1,4.87-4.87A4.866,4.866,0,0,1,9.153,14.023Z" transform="translate(-1.5 -1.5)" fill="#eb0e4c"/>
</svg>
