<svg xmlns="http://www.w3.org/2000/svg" width="9.882" height="14.117" viewBox="0 0 9.882 14.117">
  <g id="Group_2864" data-name="Group 2864" transform="translate(-136.059 -374.883)">
    <path id="icons8_marker" d="M9.941,2A4.941,4.941,0,0,0,5,6.941c0,3.529,4.941,9.176,4.941,9.176s4.941-5.647,4.941-9.176A4.941,4.941,0,0,0,9.941,2Zm0,6.706a1.765,1.765,0,1,1,1.765-1.765A1.764,1.764,0,0,1,9.941,8.706Z" transform="translate(131.059 372.883)" fill="#eb0e4c"/>
    <circle id="Ellipse_70" data-name="Ellipse 70" cx="3" cy="3" r="3" transform="translate(138 377)" fill="#eb0e4c"/>
    <path id="icons8_home_2" d="M10.418,9.144H9.231a.33.33,0,0,1-.33-.33V7.627a.264.264,0,0,0-.264-.264H8.11a.264.264,0,0,0-.264.264V8.814a.33.33,0,0,1-.33.33H6.33A.33.33,0,0,1,6,8.814V6.3a.989.989,0,0,1,.377-.777L8.251,4.042a.2.2,0,0,1,.245,0l1.875,1.477a.989.989,0,0,1,.377.777V8.814A.33.33,0,0,1,10.418,9.144Z" transform="translate(132.626 373)" fill="#fff"/>
  </g>
</svg>
