<svg xmlns="http://www.w3.org/2000/svg" width="56.401" height="75.201" viewBox="0 0 56.401 75.201">
  <path id="icons8_lock" d="M44.2,8A18.818,18.818,0,0,0,25.4,26.8v7.195a28.2,28.2,0,1,0,37.6,0V26.8A18.818,18.818,0,0,0,44.2,8Zm0,2.35A16.433,16.433,0,0,1,60.651,26.8v5.308a28.144,28.144,0,0,0-32.9,0V26.8A16.433,16.433,0,0,1,44.2,10.35Zm0,18.8A25.85,25.85,0,1,1,18.35,55,25.833,25.833,0,0,1,44.2,29.15Zm0,3.525a1.175,1.175,0,1,0,1.175,1.175A1.175,1.175,0,0,0,44.2,32.675Zm-5.473.721A1.175,1.175,0,1,0,39.9,34.571,1.175,1.175,0,0,0,38.727,33.4Zm10.947,0a1.175,1.175,0,1,0,1.175,1.175A1.175,1.175,0,0,0,49.674,33.4ZM33.625,35.51A1.175,1.175,0,1,0,34.8,36.685a1.175,1.175,0,0,0-1.175-1.175Zm21.15,0a1.175,1.175,0,1,0,1.175,1.175,1.175,1.175,0,0,0-1.175-1.175Zm-25.531,3.36a1.175,1.175,0,1,0,1.175,1.175A1.175,1.175,0,0,0,29.244,38.869Zm29.912,0a1.175,1.175,0,1,0,1.175,1.175A1.175,1.175,0,0,0,59.156,38.869ZM25.884,43.251a1.175,1.175,0,1,0,1.175,1.175A1.175,1.175,0,0,0,25.884,43.251Zm36.632,0a1.175,1.175,0,1,0,1.175,1.175A1.175,1.175,0,0,0,62.516,43.251ZM44.2,46.776a5.893,5.893,0,0,0-5.875,5.875,5.722,5.722,0,0,0,2.35,4.482v4.918a3.525,3.525,0,1,0,7.05,0V57.133a5.722,5.722,0,0,0,2.35-4.482A5.893,5.893,0,0,0,44.2,46.776Zm-20.43,1.577a1.175,1.175,0,1,0,1.175,1.175A1.175,1.175,0,0,0,23.771,48.352Zm40.859,0A1.175,1.175,0,1,0,65.8,49.527,1.175,1.175,0,0,0,64.63,48.352Zm-20.43.773a3.511,3.511,0,0,1,1.76,6.557l-.585.34v6.029a1.175,1.175,0,1,1-2.35,0V56.022l-.585-.34a3.511,3.511,0,0,1,1.76-6.557Zm-21.15,4.7A1.175,1.175,0,1,0,24.225,55,1.175,1.175,0,0,0,23.05,53.826Zm42.3,0A1.175,1.175,0,1,0,66.526,55,1.175,1.175,0,0,0,65.351,53.826ZM23.771,59.3a1.175,1.175,0,1,0,1.175,1.175A1.175,1.175,0,0,0,23.771,59.3Zm40.859,0A1.175,1.175,0,1,0,65.8,60.474,1.175,1.175,0,0,0,64.63,59.3ZM25.884,64.4a1.175,1.175,0,1,0,1.175,1.175A1.175,1.175,0,0,0,25.884,64.4Zm36.632,0a1.175,1.175,0,1,0,1.175,1.175A1.175,1.175,0,0,0,62.516,64.4ZM29.244,68.782a1.175,1.175,0,1,0,1.175,1.175A1.175,1.175,0,0,0,29.244,68.782Zm29.912,0a1.175,1.175,0,1,0,1.175,1.175A1.175,1.175,0,0,0,59.156,68.782Zm-25.531,3.36A1.175,1.175,0,1,0,34.8,73.317,1.175,1.175,0,0,0,33.625,72.142Zm21.15,0a1.175,1.175,0,1,0,1.175,1.175A1.175,1.175,0,0,0,54.775,72.142ZM38.727,74.255A1.175,1.175,0,1,0,39.9,75.43,1.175,1.175,0,0,0,38.727,74.255Zm10.947,0a1.175,1.175,0,1,0,1.175,1.175A1.175,1.175,0,0,0,49.674,74.255Zm-5.473.721a1.175,1.175,0,1,0,1.175,1.175A1.175,1.175,0,0,0,44.2,74.976Z" transform="translate(-16 -8)" fill="#eb0e4c"/>
</svg>
