<svg xmlns="http://www.w3.org/2000/svg" width="21" height="24" viewBox="0 0 21 24">
    <path fill="#A3A3A3" fill-rule="nonzero" d="M17.804 0C19.54 0 21 1.422 21 3.111V20.89C21 22.578 19.54 24 17.804 24H3.196c-.73 0-1.37-.622-1.37-1.333v-.445H1.37C.64 22.222 0 21.6 0 20.89s.64-1.333 1.37-1.333l.456-.001v-.889H1.37c-.73 0-1.37-.622-1.37-1.333C0 16.623.64 16 1.37 16h.456v-.889H1.37c-.73 0-1.37-.622-1.37-1.333s.64-1.334 1.37-1.334h.456v-.889H1.37c-.73 0-1.37-.622-1.37-1.333 0-.71.64-1.333 1.37-1.333l.456-.001V8H1.37C.64 8 0 7.378 0 6.667s.64-1.334 1.37-1.334h.456v-.889H1.37C.64 4.444 0 3.822 0 3.111s.64-1.333 1.37-1.333l.456-.001v-.444c0-.71.64-1.333 1.37-1.333h14.608zm0 .889H3.196c-.274 0-.457.178-.457.444v.444h.457c.73 0 1.37.623 1.37 1.334 0 .695-.61 1.304-1.32 1.332v.892l.077.005c.676.067 1.242.657 1.242 1.327 0 .694-.61 1.304-1.318 1.332l-.001.892.077.004c.676.067 1.242.658 1.242 1.327 0 .695-.61 1.304-1.318 1.333l-.001.891.077.005c.676.067 1.242.657 1.242 1.327 0 .694-.61 1.304-1.318 1.332l-.001.892.077.004c.676.068 1.242.658 1.242 1.327 0 .695-.61 1.304-1.318 1.333l-.001.891.077.005c.676.067 1.242.658 1.242 1.327 0 .711-.639 1.333-1.37 1.333H2.74v.445c0 .266.183.444.457.444h14.608c1.279 0 2.283-.978 2.283-2.222V3.11c0-1.244-1.004-2.222-2.283-2.222zM3.196 20.444H1.37c-.274 0-.457.178-.457.445s.183.444.457.444h1.826c.274 0 .456-.177.456-.444s-.182-.445-.456-.445zm8.217-10.666c2.557 0 4.565 1.955 4.565 4.444 0 .89-.274 1.778-.73 2.49-.091.088-.183.177-.365.177h-1.644a.444.444 0 0 1-.38-.18c-.323.12-.672.18-.99.18-1.552 0-2.739-1.156-2.739-2.667 0-1.51 1.187-2.666 2.74-2.666.317 0 .665.06.99.179a.44.44 0 0 1 .38-.18c.273 0 .456.178.456.445v4h.913c.365-.533.456-1.156.456-1.778 0-1.955-1.643-3.555-3.652-3.555-2.009 0-3.652 1.6-3.652 3.555 0 1.956 1.643 3.556 3.652 3.556.548 0 1.096-.09 1.644-.356.182-.089.456 0 .639.178.091.178 0 .444-.183.622-.73.267-1.37.445-2.1.445-2.556 0-4.565-1.956-4.565-4.445 0-2.489 2.009-4.444 4.565-4.444zm-8.217 7.11H1.37c-.274 0-.457.179-.457.445 0 .267.183.445.457.445h1.826c.274 0 .456-.178.456-.445 0-.266-.182-.444-.456-.444zm8.674-4.444c-1.005 0-1.827.8-1.827 1.778S10.865 16 11.87 16c.365 0 .639-.089.913-.267v-3.022a1.572 1.572 0 0 0-.913-.267zm-8.674.89H1.37c-.274 0-.457.177-.457.444 0 .266.183.444.457.444h1.826c.274 0 .456-.178.456-.444 0-.267-.182-.445-.456-.445zm0-3.556H1.37c-.274 0-.457.178-.457.444 0 .267.183.445.457.445h1.826c.274 0 .456-.178.456-.445 0-.266-.182-.444-.456-.444zm0-3.556H1.37c-.274 0-.457.178-.457.445 0 .266.183.444.457.444h1.826c.274 0 .456-.178.456-.444 0-.267-.182-.445-.456-.445zm0-3.555H1.37c-.274 0-.457.177-.457.444s.183.445.457.445h1.826c.274 0 .456-.178.456-.445s-.182-.444-.456-.444z"/>
</svg>
