<svg xmlns="http://www.w3.org/2000/svg" width="23.293" height="28.827" viewBox="0 0 23.293 28.827">
  <path id="icons8_user_male" d="M25.394,25.753v-1.9c0-2.463-3.693-4.7-7.726-5.491a1.757,1.757,0,0,1-.9-1.9,8.57,8.57,0,0,0,1.571-3.246,3.483,3.483,0,0,0,.783-.56,4.915,4.915,0,0,0,.669-2.8c-.109-.9-.333-.56-.446-.783a7.794,7.794,0,0,0-.56-6.5c-2.126-3.7-6.606-2.577-7.28-1.234C7.251.553,7.365,7.273,8.034,8.953c0,0-.332.114-.332,1.68a3.972,3.972,0,0,0,1.452,2.686,7.649,7.649,0,0,0,1.457,3.028,1.209,1.209,0,0,1-.783,1.9C5.794,19.033,2.1,21.273,2.1,23.736v1.9c0,1.571,6.046,3.251,11.646,3.251C19.234,28.89,25.394,28.33,25.394,25.753Z" transform="translate(-2.102 -0.062)" fill="#afafaf"/>
</svg>
