<svg xmlns="http://www.w3.org/2000/svg" width="14.776" height="13.109" viewBox="0 0 14.776 13.109">
  <g id="Group_3661" data-name="Group 3661" transform="translate(582 -236.317)">
    <path id="Path_5634" data-name="Path 5634" d="M-570.176,477.969V477.8h-11.652c-.057,0-.115.008-.172.012v2.8c.005.008.014.015.016.023a1.159,1.159,0,0,0,1.253.958h9.311a1.156,1.156,0,0,0,1.243-1.244C-570.174,479.556-570.176,478.763-570.176,477.969Zm-8.425,2.586q-.945,0-1.89,0a.437.437,0,0,1-.469-.439.437.437,0,0,1,.467-.426c.317,0,.635,0,.952,0s.625,0,.938,0a.438.438,0,0,1,.47.439A.438.438,0,0,1-578.6,480.555Z" transform="translate(0 -232.169)" fill="#eb0e4c"/>
    <path id="Path_5635" data-name="Path 5635" d="M-570.186,404.49v1.962h-11.642c-.057,0-.115.007-.172.011V404.5c.057,0,.115-.01.172-.01h11.642Z" transform="translate(0 -161.687)" fill="#eb0e4c"/>
    <path id="Path_5636" data-name="Path 5636" d="M-570.173,354.683h-11.655c-.057,0-.115.006-.172.009v-.144c.022-.067.044-.135.068-.2a1.15,1.15,0,0,1,1.13-.76q1.6,0,3.2,0,3.1,0,6.192,0a1.148,1.148,0,0,1,1.167.786A3.1,3.1,0,0,1-570.173,354.683Z" transform="translate(0 -112.745)" fill="#eb0e4c"/>
    <path id="Path_5637" data-name="Path 5637" d="M-523.765,244.966c-.2.023-.388.067-.582.1l-.467.081v-.19c0-.972,0-1.944,0-2.916a2.01,2.01,0,0,0-1.557-2.012,2.16,2.16,0,0,0-.486-.051q-4.287,0-8.574,0c-.14,0-.2-.034-.206-.177a5.359,5.359,0,0,1-.076-.769,1.119,1.119,0,0,1,.969-1.014q3.266-.57,6.532-1.146,1.584-.277,3.168-.548a1.113,1.113,0,0,1,1.168.869c.141.692.254,1.39.377,2.085.247,1.4.475,2.8.745,4.187A1.2,1.2,0,0,1-523.765,244.966Z" transform="translate(-44.498 0)" fill="#eb0e4c"/>
  </g>
</svg>
