<svg xmlns="http://www.w3.org/2000/svg" width="22" height="22" viewBox="0 0 22 22">
    <path fill="#A3A3A3" fill-rule="nonzero" d="M20.462.101a1.901 1.901 0 0 1 1.32 1.653l.008.153v16.891c0 .432.004.868 0 1.3a1.906 1.906 0 0 1-1.217 1.775 2.033 2.033 0 0 1-.692.12l-.177.003H6.5c-.524 0-1.045.009-1.57 0-.754-.009-1.446-.436-1.746-1.136-.188-.446-.171-.957-.16-1.445h-.643c-.458 0-.904-.132-1.212-.489-.393-.454-.485-1.14-.247-1.691.234-.546.772-.868 1.358-.881l.474-.002.284.001V5.637H2.38c-.407 0-.804-.104-1.104-.377l-.108-.111C.776 4.695.684 4.009.922 3.458c.234-.547.772-.873 1.358-.881l.474-.002.278.001-.006-.218c-.01-.369-.003-.747.114-1.08A1.893 1.893 0 0 1 4.922.017l.234-.002.237.002h13.424c.52 0 1.143-.075 1.645.083zm-.637.569H4.992c-.485.004-.917.22-1.15.656-.122.224-.14.454-.142.695v.555h.763c.367 0 .71.048 1.014.243l.128.092c.476.384.635 1.035.494 1.617-.148.616-.684 1.037-1.293 1.105l-.131.01-.067-.006H3.7v10.716h.763c.419 0 .807.063 1.142.336.476.383.635 1.035.494 1.616-.148.617-.684 1.038-1.293 1.105l-.131.01-.054-.005h-.93v.388c0 .264-.013.528.088.78.185.444.592.706 1.052.75l.14.007h14.693c.194 0 .384.009.573-.044.51-.143.842-.578.893-1.084l.007-.127V3.356c0-.475.004-.947 0-1.422 0-.52-.287-.996-.785-1.185a1.475 1.475 0 0 0-.527-.08zm-12.2 1.237l.009.08v.03c.02.485.013.971.007 1.457l-.007.728V20.01c0 .398-.576.425-.653.08l-.009-.08v-.031c-.01-.242-.013-.485-.013-.728l.013-1.457V1.986c0-.398.576-.425.653-.08zm-2.95 16.852c-.395.012-.426.588-.08.655l.026.001h.05c.427.004.427-.656.004-.656zm-2.58-1.727c-.45.102-.64.498-.63.92.008.45.356.798.806.807l.333.001.333-.001h1.738c.55-.013.82-.463.807-.97-.014-.453-.393-.77-.834-.774-.63-.005-1.265 0-1.896 0-.212 0-.45-.031-.657.017zm16.983-1.48c.427 0 .427.661 0 .661H9.636c-.423 0-.423-.66 0-.66zm0-2.228c.427 0 .427.66 0 .66H9.636c-.423 0-.423-.66 0-.66zm0-2.229c.427 0 .427.66 0 .66H9.636c-.423 0-.423-.66 0-.66zM9.636 7.404h9.442c.399 0 .425.576.08.652l-.08.009H9.636c-.395 0-.422-.576-.08-.653l.08-.008h9.442zm0-2.229h9.442c.399 0 .425.576.08.653l-.08.008H9.636c-.395 0-.422-.576-.08-.652l.08-.009h9.442zm-4.961-.193c-.395.012-.426.588-.08.654l.013.001h.062c.428.005.428-.655.005-.655zm-2.58-1.727c-.45.101-.64.498-.63.92.008.45.356.798.806.807l.333.001.333-.001h1.738c.55-.018.82-.467.807-.97-.014-.453-.393-.77-.834-.775-.63-.004-1.265 0-1.896 0-.212 0-.45-.03-.657.018zm7.54-.308h9.443c.399 0 .425.575.08.652l-.08.008H9.636c-.395 0-.422-.575-.08-.652l.08-.008h9.442zm-6.407-.37l-.196-.001v.001h.196z"/>
</svg>
