<svg id="Component_6_1" data-name="Component 6 – 1" xmlns="http://www.w3.org/2000/svg" width="76" height="76" viewBox="0 0 76 76">
  <g id="Component_5_1" data-name="Component 5 – 1">
    <g id="Rectangle_2200" data-name="Rectangle 2200" fill="#10c995" stroke="#fff" stroke-width="5">
      <rect width="76" height="76" rx="15" stroke="none"/>
      <rect x="2.5" y="2.5" width="71" height="71" rx="12.5" fill="none"/>
    </g>
  </g>
  <g id="Group_3565" data-name="Group 3565" transform="translate(-107.253 -287.53)">
    <path id="Path_1079" data-name="Path 1079" d="M168.449,315.4a2.462,2.462,0,0,0-3.749-1.536c-2.236,1.277-4.459,2.577-6.688,3.865a2.548,2.548,0,0,1-3.422-.367q-3.734-3.444-7.472-6.885a2.5,2.5,0,0,0-3.707.02q-3.734,3.444-7.472,6.885a2.538,2.538,0,0,1-3.343.382c-2.259-1.3-4.514-2.613-6.775-3.911a2.506,2.506,0,0,0-3.777,2.558c.5,3.329,1.015,6.657,1.509,9.988.619,4.164,1.218,8.331,1.84,12.493a2.564,2.564,0,0,0,2.92,2.493h16.954v0h5.949q5.6,0,11.2,0a2.5,2.5,0,0,0,2.709-2.324c.144-1,.254-2,.405-2.994.935-6.168,1.885-12.336,2.81-18.507A6.888,6.888,0,0,0,168.449,315.4Zm-16.107,19.482a2.893,2.893,0,0,1-.921.147q-6.172.014-12.342,0a2.12,2.12,0,1,1,0-4.233q3.1-.006,6.2,0v0c2.114,0,4.229-.008,6.345,0a2.1,2.1,0,0,1,.722,4.082Z" transform="translate(0)" fill="#fff"/>
  </g>
</svg>
