<svg xmlns="http://www.w3.org/2000/svg" width="28.91" height="28.91" viewBox="0 0 28.91 28.91">
  <path id="icons8_add_list" d="M25.55,0a3.361,3.361,0,0,1,3.36,3.36V22.4a3.361,3.361,0,0,1-3.36,3.36H14.595a8.713,8.713,0,0,0,.6-2.24H25.55a1.122,1.122,0,0,0,1.12-1.12V3.36a1.122,1.122,0,0,0-1.12-1.12H5.39A1.122,1.122,0,0,0,4.27,3.36V13.965a8.751,8.751,0,0,0-2.24.945V3.36A3.361,3.361,0,0,1,5.39,0ZM23.31,5.6a1.122,1.122,0,0,1,1.12,1.12V7.84a1.122,1.122,0,0,1-1.12,1.12H22.19a1.122,1.122,0,0,1-1.12-1.12V6.72A1.122,1.122,0,0,1,22.19,5.6Zm-5.6.07a1.122,1.122,0,0,1,1.12,1.12V7.91a1.122,1.122,0,0,1-1.12,1.12H7.63A1.122,1.122,0,0,1,6.51,7.91V6.79A1.122,1.122,0,0,1,7.63,5.67Zm5.6,5.6a1.122,1.122,0,0,1,1.12,1.12v1.12a1.122,1.122,0,0,1-1.12,1.12H22.19a1.122,1.122,0,0,1-1.12-1.12V12.39a1.122,1.122,0,0,1,1.12-1.12Zm-5.6,0a1.122,1.122,0,0,1,1.12,1.12v1.12a1.122,1.122,0,0,1-1.12,1.12H10.5a8.589,8.589,0,0,0-3.955-.98c0-.048-.035-.087-.035-.14V12.39a1.122,1.122,0,0,1,1.12-1.12ZM6.51,15.89A6.51,6.51,0,1,1,0,22.4,6.509,6.509,0,0,1,6.51,15.89Zm16.8.98a1.122,1.122,0,0,1,1.12,1.12v1.12a1.122,1.122,0,0,1-1.12,1.12H22.19a1.122,1.122,0,0,1-1.12-1.12V17.99a1.122,1.122,0,0,1,1.12-1.12Zm-5.6,0a1.122,1.122,0,0,1,1.12,1.12v1.12a1.122,1.122,0,0,1-1.12,1.12H14.98a8.69,8.69,0,0,0-1.68-3.36ZM7.63,19.04H5.39v2.24H3.15v2.24H5.39v2.24H7.63V23.52H9.87V21.28H7.63Z" fill="#afafaf"/>
</svg>
