<svg id="Component_8_1" data-name="Component 8 – 1" xmlns="http://www.w3.org/2000/svg" width="79" height="116.3" viewBox="0 0 79 116.3">
  <path id="icons8-dining-room" d="M9.247,0S5,29.729,5,33.975s9.556,12.741,9.556,12.741l-1.062,56.67c0,4.695,3.8,7.034,8.494,7.034s8.494-2.339,8.494-7.034L29.42,46.716s9.556-8.676,9.556-12.741S34.729,0,34.729,0H30.482V27.605a2.123,2.123,0,0,1-4.247,0c0-.4-1.46-27.605-1.46-27.605H19.2s-1.46,27.207-1.46,27.605a2.123,2.123,0,1,1-4.247,0V0ZM68.7.265c-4.695,0-16.988,11.463-16.988,25.349,0,22.695,8.627,28.966,8.627,33.843,0,10.817-4.247,22.33-4.247,43.929,0,4.678,3.666,7.034,8.361,7.034s8.494-2.339,8.494-7.034V6.5C72.951,3.119,72.221.265,68.7.265Z" transform="translate(-5)" fill="#afafaf"/>
  <g id="Ellipse_89" data-name="Ellipse 89" transform="translate(57 95.3)" fill="#fff" stroke="#fff" stroke-width="3">
    <ellipse cx="11" cy="10.5" rx="11" ry="10.5" stroke="none"/>
    <ellipse cx="11" cy="10.5" rx="9.5" ry="9" fill="none"/>
  </g>
  <path id="Icon_metro-notification" data-name="Icon metro-notification" d="M12.009,3.7a7.669,7.669,0,1,0,5.423,2.246A7.618,7.618,0,0,0,12.009,3.7Zm0-1.77a9.438,9.438,0,1,1-9.438,9.438,9.438,9.438,0,0,1,9.438-9.438Zm-1.18,12.978h2.36v2.36h-2.36Zm0-9.438h2.36v7.079h-2.36Z" transform="translate(56.032 94.385)" fill="#afafaf"/>
</svg>
