<svg xmlns="http://www.w3.org/2000/svg" width="28" height="28.014" viewBox="0 0 28 28.014">
  <path id="icons8_location_off" d="M14.984.986A1,1,0,0,0,14,2V3.051A12.01,12.01,0,0,0,3.051,14H2a1,1,0,1,0,0,2H3.051A12.01,12.01,0,0,0,14,26.949V28a1,1,0,1,0,2,0V26.951A12.011,12.011,0,0,0,26.949,16H28a1,1,0,1,0,0-2H26.949A12.011,12.011,0,0,0,16,3.049V2A1,1,0,0,0,14.984.986ZM14,5.049V6a1,1,0,1,0,2,0V5.051A9.984,9.984,0,0,1,24.951,14H24a1,1,0,1,0,0,2h.951A9.984,9.984,0,0,1,16,24.949V24a1,1,0,1,0-2,0v.951A9.986,9.986,0,0,1,5.049,16H6a1,1,0,1,0,0-2H5.049A9.986,9.986,0,0,1,14,5.049ZM11.99,10.99a1,1,0,0,0-.7,1.717L13.586,15l-2.293,2.293a1,1,0,1,0,1.414,1.414L15,16.414l2.293,2.293a1,1,0,1,0,1.414-1.414L16.414,15l2.293-2.293a1,1,0,1,0-1.414-1.414L15,13.586l-2.293-2.293a1,1,0,0,0-.717-.3Z" transform="translate(-1 -0.986)" fill="#afafaf"/>
</svg>
