<svg xmlns="http://www.w3.org/2000/svg" width="51" height="50" viewBox="0 0 51 50">
    <path fill="#000000" fill-rule="nonzero" d="M25.5 0C11.694 0 .5 11.194.5 25s11.194 25 25 25 25-11.194 25-25-11.194-25-25-25zm0 46.875C13.437 46.875 3.625 37.062 3.625 25c0-12.063 9.813-21.875 21.875-21.875 12.063 0 21.875 9.813 21.875 21.875 0 12.063-9.813 21.875-21.875 21.875zm0-37.5a3.125 3.125 0 0 0-3.125 3.125v15.625a3.125 3.125 0 0 0 6.25 0V12.5c0-1.726-1.4-3.125-3.125-3.125zM22.375 37.45a3.125 3.125 0 1 0 6.25 0 3.125 3.125 0 0 0-6.25 0z"/>
</svg>
