<svg xmlns="http://www.w3.org/2000/svg" width="176" height="176" viewBox="0 0 176 176">
  <g id="Path_5624" data-name="Path 5624" fill="rgba(110,111,111,0.3)">
    <path d="M 88 175 C 82.09649658203125 175 76.197021484375 174.4053192138672 70.46540832519531 173.2324523925781 C 64.87997436523438 172.0894927978516 59.38595581054688 170.3840637207031 54.13597869873047 168.1635284423828 C 48.9810905456543 165.9831848144531 44.00911331176758 163.2844848632812 39.35818099975586 160.1423645019531 C 34.75115966796875 157.0299377441406 30.41888618469238 153.4554748535156 26.48170471191406 149.5182952880859 C 22.54454612731934 145.5811157226562 18.97009086608887 141.2488403320312 15.85763645172119 136.641845703125 C 12.71552276611328 131.9908905029297 10.01681804656982 127.0189056396484 7.836477279663086 121.8640213012695 C 5.615931987762451 116.6140441894531 3.910500049591064 111.1200256347656 2.767545461654663 105.5345916748047 C 1.594681859016418 99.802978515625 1 93.90350341796875 1 88 C 1 77.9835205078125 2.6875 68.16697692871094 6.015613555908203 58.82304382324219 C 9.233931541442871 49.78731918334961 13.91224956512451 41.38518142700195 19.92056846618652 33.85002136230469 C 25.87606811523438 26.38113594055176 32.9692268371582 19.97340965270996 41.00304412841797 14.80486392974854 C 49.17924880981445 9.544681549072266 58.10974884033203 5.71347713470459 67.54640960693359 3.417659044265747 C 74.13936614990234 1.813409090042114 81.02093505859375 1 88 1 C 93.90350341796875 1 99.802978515625 1.594681859016418 105.5345916748047 2.767545461654663 C 111.1200256347656 3.910500049591064 116.6140441894531 5.615931987762451 121.8640213012695 7.836477279663086 C 127.0189056396484 10.01681804656982 131.9908905029297 12.71552276611328 136.641845703125 15.85763645172119 C 141.2488403320312 18.97009086608887 145.5811157226562 22.54454612731934 149.5182952880859 26.48170471191406 C 153.4554748535156 30.41888618469238 157.0299377441406 34.75115966796875 160.1423645019531 39.35818099975586 C 163.2844848632812 44.00911331176758 165.9831848144531 48.9810905456543 168.1635284423828 54.13597869873047 C 170.3840637207031 59.38595581054688 172.0894927978516 64.87997436523438 173.2324523925781 70.46540832519531 C 174.4053192138672 76.197021484375 175 82.09649658203125 175 88 C 175 93.90350341796875 174.4053192138672 99.802978515625 173.2324523925781 105.5345916748047 C 172.0894927978516 111.1200256347656 170.3840637207031 116.6140441894531 168.1635284423828 121.8640213012695 C 165.9831848144531 127.0189056396484 163.2844848632812 131.9908905029297 160.1423645019531 136.641845703125 C 157.0299377441406 141.2488403320312 153.4554748535156 145.5811157226562 149.5182952880859 149.5182952880859 C 145.5811157226562 153.4554748535156 141.2488403320312 157.0299377441406 136.641845703125 160.1423645019531 C 131.9908905029297 163.2844848632812 127.0189056396484 165.9831848144531 121.8640213012695 168.1635284423828 C 116.6140441894531 170.3840637207031 111.1200256347656 172.0894927978516 105.5345916748047 173.2324523925781 C 99.802978515625 174.4053192138672 93.90350341796875 175 88 175 Z" stroke="none"/>
    <path d="M 88 2 C 81.10050201416016 2 74.29847717285156 2.803863525390625 67.78280639648438 4.3892822265625 C 58.45449829101562 6.658737182617188 49.62652587890625 10.44599914550781 41.54409790039062 15.64582824707031 C 33.60205078125 20.75535583496094 26.58990478515625 27.08987426757812 20.70242309570312 34.47344970703125 C 14.76321411132812 41.92195129394531 10.13877868652344 50.22724151611328 6.9576416015625 59.1585693359375 C 3.667999267578125 68.39450073242188 2 78.09816741943359 2 88 C 2 93.83628845214844 2.587860107421875 99.6683349609375 3.747238159179688 105.3341217041016 C 4.876953125 110.8548812866211 6.562637329101562 116.285285949707 8.757476806640625 121.4744567871094 C 10.91267395019531 126.5698852539062 13.58029174804688 131.4845733642578 16.68626403808594 136.08203125 C 19.76307678222656 140.6362915039062 23.29664611816406 144.9190063476562 27.18881225585938 148.8111877441406 C 31.08097839355469 152.7033538818359 35.36369323730469 156.2369232177734 39.91796875 159.3137359619141 C 44.51541137695312 162.4197082519531 49.43009185791016 165.0873413085938 54.52552032470703 167.2425231933594 C 59.71471405029297 169.4373626708984 65.14511871337891 171.123046875 70.66587829589844 172.2527618408203 C 76.3316650390625 173.4121398925781 82.16368865966797 174 88 174 C 93.83628845214844 174 99.6683349609375 173.4121398925781 105.3341217041016 172.2527618408203 C 110.8548812866211 171.123046875 116.285285949707 169.4373626708984 121.4744567871094 167.2425231933594 C 126.5698852539062 165.0873413085938 131.4845733642578 162.4197082519531 136.08203125 159.3137359619141 C 140.6362915039062 156.2369232177734 144.9190063476562 152.7033538818359 148.8111877441406 148.8111877441406 C 152.7033538818359 144.9190063476562 156.2369232177734 140.6362915039062 159.3137359619141 136.08203125 C 162.4197082519531 131.4845733642578 165.0873413085938 126.5698852539062 167.2425231933594 121.4744567871094 C 169.4373626708984 116.285285949707 171.123046875 110.8548812866211 172.2527618408203 105.3341217041016 C 173.4121398925781 99.6683349609375 174 93.83628845214844 174 88 C 174 82.16368865966797 173.4121398925781 76.3316650390625 172.2527618408203 70.66587829589844 C 171.123046875 65.14511871337891 169.4373626708984 59.71471405029297 167.2425231933594 54.52552032470703 C 165.0873413085938 49.43009185791016 162.4197082519531 44.51541137695312 159.3137359619141 39.91796875 C 156.2369232177734 35.36369323730469 152.7033538818359 31.08097839355469 148.8111877441406 27.18881225585938 C 144.9190063476562 23.29664611816406 140.6362915039062 19.76307678222656 136.08203125 16.68626403808594 C 131.4845733642578 13.58029174804688 126.5698852539062 10.91267395019531 121.4744567871094 8.757476806640625 C 116.285285949707 6.562637329101562 110.8548812866211 4.876953125 105.3341217041016 3.747238159179688 C 99.6683349609375 2.587860107421875 93.83628845214844 2 88 2 M 88 0 C 136.6010437011719 0 176 39.39892578125 176 88 C 176 136.6010437011719 136.6010437011719 176 88 176 C 39.39892578125 176 0 136.6010437011719 0 88 C 0 46.59190368652344 28.599853515625 11.8636474609375 67.31002044677734 2.445968627929688 C 73.81564331054688 0.863006591796875 80.80704498291016 0 88 0 Z" stroke="none" fill="#9cc0f9"/>
  </g>
</svg>
