<svg id="Group_2804" data-name="Group 2804" xmlns="http://www.w3.org/2000/svg" width="55.923" height="74.565" viewBox="0 0 55.923 74.565">
  <path id="icons8_lock" d="M43.962,8A18.659,18.659,0,0,0,25.321,26.641v7.134a27.962,27.962,0,1,0,37.282,0V26.641A18.659,18.659,0,0,0,43.962,8Zm0,2.33A16.294,16.294,0,0,1,60.273,26.641V31.9a27.905,27.905,0,0,0-32.622,0V26.641A16.294,16.294,0,0,1,43.962,10.33Zm0,18.641A25.632,25.632,0,1,1,18.33,54.6,25.614,25.614,0,0,1,43.962,28.971Zm0,3.5a1.165,1.165,0,1,0,1.165,1.165A1.165,1.165,0,0,0,43.962,32.466Zm-5.427.715A1.165,1.165,0,1,0,39.7,34.346,1.165,1.165,0,0,0,38.534,33.181Zm10.854,0a1.165,1.165,0,1,0,1.165,1.165A1.165,1.165,0,0,0,49.389,33.181Zm-15.913,2.1a1.165,1.165,0,1,0,1.165,1.165,1.165,1.165,0,0,0-1.165-1.165Zm20.971,0a1.165,1.165,0,1,0,1.165,1.165,1.165,1.165,0,0,0-1.165-1.165ZM29.132,38.608A1.165,1.165,0,1,0,30.3,39.773,1.165,1.165,0,0,0,29.132,38.608Zm29.659,0a1.165,1.165,0,1,0,1.165,1.165A1.165,1.165,0,0,0,58.791,38.608ZM25.8,42.952a1.165,1.165,0,1,0,1.165,1.165A1.165,1.165,0,0,0,25.8,42.952Zm36.322,0a1.165,1.165,0,1,0,1.165,1.165A1.165,1.165,0,0,0,62.123,42.952Zm-18.161,3.5a5.843,5.843,0,0,0-5.825,5.825,5.674,5.674,0,0,0,2.33,4.444v4.876a3.5,3.5,0,1,0,6.99,0V56.717a5.674,5.674,0,0,0,2.33-4.444A5.843,5.843,0,0,0,43.962,46.447ZM23.7,48.011a1.165,1.165,0,1,0,1.165,1.165A1.165,1.165,0,0,0,23.7,48.011Zm40.513,0a1.165,1.165,0,1,0,1.165,1.165A1.165,1.165,0,0,0,64.218,48.011Zm-20.257.767a3.481,3.481,0,0,1,1.745,6.5l-.58.337v5.978a1.165,1.165,0,1,1-2.33,0V55.615l-.58-.337a3.481,3.481,0,0,1,1.745-6.5ZM22.99,53.438A1.165,1.165,0,1,0,24.155,54.6,1.165,1.165,0,0,0,22.99,53.438Zm41.942,0A1.165,1.165,0,1,0,66.1,54.6,1.165,1.165,0,0,0,64.933,53.438ZM23.7,58.865A1.165,1.165,0,1,0,24.87,60.03,1.165,1.165,0,0,0,23.7,58.865Zm40.513,0a1.165,1.165,0,1,0,1.165,1.165A1.165,1.165,0,0,0,64.218,58.865ZM25.8,63.923a1.165,1.165,0,1,0,1.165,1.165A1.165,1.165,0,0,0,25.8,63.923Zm36.322,0a1.165,1.165,0,1,0,1.165,1.165A1.165,1.165,0,0,0,62.123,63.923Zm-32.99,4.344A1.165,1.165,0,1,0,30.3,69.432,1.165,1.165,0,0,0,29.132,68.267Zm29.659,0a1.165,1.165,0,1,0,1.165,1.165A1.165,1.165,0,0,0,58.791,68.267ZM33.476,71.6a1.165,1.165,0,1,0,1.165,1.165A1.165,1.165,0,0,0,33.476,71.6Zm20.971,0a1.165,1.165,0,1,0,1.165,1.165A1.165,1.165,0,0,0,54.447,71.6Zm-15.913,2.1A1.165,1.165,0,1,0,39.7,74.86,1.165,1.165,0,0,0,38.534,73.695Zm10.854,0a1.165,1.165,0,1,0,1.165,1.165A1.165,1.165,0,0,0,49.389,73.695Zm-5.427.715a1.165,1.165,0,1,0,1.165,1.165A1.165,1.165,0,0,0,43.962,74.409Z" transform="translate(-16 -8)" fill="#eb0e4c"/>
  <circle id="Ellipse_67" data-name="Ellipse 67" cx="13" cy="13" r="13" transform="translate(15.523 32.492)" fill="#fff"/>
  <text id="_" data-name="?" transform="translate(28.523 55.492)" fill="#eb0e4c" font-size="24" font-family="Poppins-Regular, Poppins"><tspan x="-6.288" y="0">?</tspan></text>
</svg>
