<svg xmlns="http://www.w3.org/2000/svg" width="33" height="18" viewBox="0 0 33 18">
    <path fill="#404553" fill-rule="nonzero" d="M5.12 0c.34-.011.634.215.685.472l.008.078v.028l.001.31-.001.309-.001 14.379 1.75-1.796 1.499-1.54c.275-.281.705-.26.98 0 .274.26.256.743 0 1.006l-.543.558-2.39 2.452-1.499 1.54a.689.689 0 0 1-.98 0l-.542-.558-2.39-2.452-1.499-1.54c-.274-.28-.254-.72 0-1.005.23-.257.64-.264.905-.066l.075.066.543.557 2.389 2.453.316.324V.55c0-.308.317-.537.693-.55zm10.246.205l.543.557 2.389 2.452 1.5 1.54c.274.28.253.72 0 1.005-.253.282-.724.263-.98 0l-.543-.557-2.39-2.453-.316-.325V17.45c0 .308-.316.537-.693.55-.34.011-.634-.215-.685-.472l-.008-.078v-.028l-.002-.31.002-.309V2.423L12.434 4.22l-1.5 1.54c-.274.281-.704.26-.979 0s-.256-.743 0-1.006l.543-.558 2.389-2.452 1.5-1.54a.689.689 0 0 1 .979 0zm9.547 16.318c.388 0 .675.325.693.711.017.384-.33.712-.693.712H19.23c-.388 0-.677-.325-.693-.712-.016-.384.33-.711.693-.711zm-5.095-4.434l.572.003h8.22c.388 0 .674.325.693.711.016.385-.33.712-.693.712h-.016c-.38.007-.76 0-1.142 0h-8.22c-.388 0-.677-.325-.693-.712-.016-.384.33-.711.693-.711h.016c.38-.007.76 0 1.142 0zm.224-4.436l.791.004h11.473c.388 0 .677.325.693.711.017.385-.33.712-.693.712h-.02c-.527.01-1.056 0-1.583 0H19.23c-.39 0-.677-.325-.693-.712-.016-.384.33-.711.693-.711h.02c.527-.01 1.056 0 1.583 0z"/>
</svg>
