<svg xmlns="http://www.w3.org/2000/svg" width="12.34" height="12.34" viewBox="0 0 12.34 12.34">
  <path id="icons8_journey" d="M5.057,3A2.057,2.057,0,1,0,6.985,5.742H12.6a1.371,1.371,0,0,1,0,2.742H5.742A2.753,2.753,0,0,0,3,11.227v.686h.139a2.716,2.716,0,0,0,2.6,2.057h5.613a2.057,2.057,0,1,0,0-1.371H5.742a1.371,1.371,0,1,1,0-2.742H12.6A2.716,2.716,0,0,0,15.2,7.8h.139V7.113A2.753,2.753,0,0,0,12.6,4.371H6.985A2.062,2.062,0,0,0,5.057,3Zm0,1.371a.686.686,0,1,1-.686.686A.675.675,0,0,1,5.057,4.371ZM13.284,12.6a.686.686,0,1,1-.686.686A.675.675,0,0,1,13.284,12.6Z" transform="translate(-3 -3)" fill="#eb0e4c"/>
</svg>
