<svg xmlns="http://www.w3.org/2000/svg" width="24" height="28" viewBox="0 0 24 28">
  <path id="svg_marker" d="M16,2C9.373,2,4,7.109,4,13.411c0,7.5,7.8,11.1,8.781,11.933A9.484,9.484,0,0,1,14.935,29.2a1.108,1.108,0,0,0,2.131,0,9.491,9.491,0,0,1,2.154-3.852C20.2,24.508,28,20.915,28,13.411,28,7.109,22.627,2,16,2Zm0,6.224a.561.561,0,0,1,.326.1l4.364,3.112a.5.5,0,0,1,.109.727.555.555,0,0,1-.437.207V17.56H17.091V14.448H14.909V17.56H11.636v-5.2a.544.544,0,0,1-.437-.2.5.5,0,0,1,.111-.727l4.364-3.112A.567.567,0,0,1,16,8.224Z" transform="translate(-4 -2)" fill="#eb0e4c"/>
</svg>
