<svg id="Group_2" data-name="Group 2" xmlns="http://www.w3.org/2000/svg" width="61" height="61" viewBox="0 0 61 61">
  <circle id="Ellipse_1" data-name="Ellipse 1" cx="30.5" cy="30.5" r="30.5" fill="#1bd741"/>
  <g id="Group_1" data-name="Group 1" transform="translate(-24.819 -23.163)">
    <path id="Path_1" data-name="Path 1" d="M68.494,104.417l2.525-8.969a18,18,0,1,1,6.724,6.588Zm9.722-5.657.551.337a14.947,14.947,0,1,0-4.812-4.7l.371.578-1.454,5.165Z" transform="translate(-31.675 -33.158)" fill="#fff"/>
    <path id="Path_2" data-name="Path 2" d="M151.643,152.891l-1.168-.064a1.413,1.413,0,0,0-1,.344,5.323,5.323,0,0,0-1.75,2.682c-.415,1.848.226,4.11,1.885,6.372a18.958,18.958,0,0,0,10.219,7.428,4.98,4.98,0,0,0,4.217-.522,3.772,3.772,0,0,0,1.641-2.394l.187-.871a.605.605,0,0,0-.339-.676l-3.948-1.82a.605.605,0,0,0-.733.18l-1.55,2.009a.444.444,0,0,1-.5.148,12.139,12.139,0,0,1-6.568-5.621.448.448,0,0,1,.056-.5l1.481-1.714a.605.605,0,0,0,.1-.634l-1.7-3.982A.605.605,0,0,0,151.643,152.891Z" transform="translate(-101.831 -108.103)" fill="#fff"/>
  </g>
</svg>
