<svg xmlns="http://www.w3.org/2000/svg" xmlns:xlink="http://www.w3.org/1999/xlink" width="841.89" height="595.28" viewBox="0 0 841.89 595.28">
  <defs>
    <clipPath id="clip-Plan_de_travail_1">
      <rect width="841.89" height="595.28"/>
    </clipPath>
  </defs>
  <g id="Plan_de_travail_1" data-name="Plan de travail 1" clip-path="url(#clip-Plan_de_travail_1)">
    <g id="New_Layer" data-name="New Layer">
      <g id="Calque_31" data-name="Calque 31">
        <g id="Group_1" data-name="Group 1">
          <path id="Path_1" data-name="Path 1" d="M477.82,134.18v33.74h-3.21a62.035,62.035,0,0,0-22.65,4.09,59.241,59.241,0,0,0-17.77,10.57c-.27.23-.54.47-.81.71a52.749,52.749,0,0,0-12.42,16.8,47.18,47.18,0,0,0-4.46,20.23v.2c.02,2.2.19,19.4.42,42.54.12,13.07.27,28.04.41,43.27.32,34.5.2,28.12.36,43.38.12,16.72.22,36.56.29,57.71-.06,2.17-.13,4.33-.23,6.58-.08,1.82-.25,5.44-.4,10.44-.04,1.34-.07,2.78-.1,4.31-.06,3.03-.24,12.5,0,26,0,.21.01.41.01.61.16,8.59.28,6.75.34,12.84.14,14.26-.29,21.28-.46,30.34-.05,2.72-.09,5.54-.14,8.46a34.823,34.823,0,0,1-.26,4.41A12.767,12.767,0,0,1,413,519.5c-4.89,4.43-15.63,4.66-22-.5-5.67-4.6-6.25-12.12-7.25-25-.29-3.7-.37-7.04-.35-9.84.02-4.14.25-7.13.35-8.41.04-.46,0-.03,0-39.36v-2.64c0-77.65.12-76.06,0-97.75-.01-1.31-.02-2.6-.02-3.87-.16-27.67-.27-46.22-.36-56.2-.04-5.12-.08-7.99-.12-8.68-.9-15.94.8-31.94.24-47.9,0,0-.4-12.83,3.13-23.94.34-1.07.71-2.11,1.07-3.09q.12-.36.27-.72l.27-.69a2.654,2.654,0,0,1,.16-.41c.17-.41.32-.8.47-1.16.1-.24.19-.47.28-.68s.18-.42.26-.61c.25-.58.51-1.17.79-1.77.25-.56.51-1.11.78-1.66.31-.64.63-1.28.96-1.91s.66-1.27,1-1.89a84.661,84.661,0,0,1,16.92-21.64,96.669,96.669,0,0,1,29.09-18.25q2.64-1.05,5.21-1.91c.31-.11.61-.2.9-.29.42-.14.84-.26,1.25-.39q.78-.24,1.56-.45A96.588,96.588,0,0,1,477.82,134.18Z" fill="#fbb24d"/>
        </g>
      </g>
      <g id="Calque_30" data-name="Calque 30">
        <path id="Path_2" data-name="Path 2" d="M417.6,468.2a8.728,8.728,0,0,1-1.25-.29c-2.88-.91-3.07-2.94-3.23-4.8-.14-1.54.08-4.13,2.65-7.25l1.49-.5C417.42,463.95,417.54,462.11,417.6,468.2Z" fill="#d03b02"/>
      </g>
      <g id="Calque_29" data-name="Calque 29">
        <path id="Path_3" data-name="Path 3" d="M417.14,498.54c-.05,2.72-.09,5.54-.14,8.46a34.823,34.823,0,0,1-.26,4.41,29.036,29.036,0,0,1-1.09,2.82,13.553,13.553,0,0,1-3.37-.01,10.235,10.235,0,0,1-5.35-2.41,6.108,6.108,0,0,1-1.35-2.53c-.63-2.74.95-6.5,9.74-10.63C415.93,498.61,416.53,498.58,417.14,498.54Z" fill="#d03b02"/>
      </g>
      <g id="Calque_28" data-name="Calque 28">
        <path id="Path_4" data-name="Path 4" d="M384,484.03c-.2.04-.4.08-.6.13.02-4.14.25-7.13.35-8.41.04-.46,0-.03,0-39.36.51.13,1.02.27,1.54.42,14.23,4.19,17.38,13.1,18.95,17.52C404.63,455.42,411.97,477.91,384,484.03Z" fill="#d03c02"/>
      </g>
      <g id="Calque_27" data-name="Calque 27">
        <path id="Path_5" data-name="Path 5" d="M417.98,407.42c-.06,2.17-.13,4.33-.23,6.58-.08,1.82-.25,5.44-.4,10.44a1,1,0,0,1-.14-.08c-14.22-8.95-16.85-21.18-18.47-28.72-1.52-7.05-6.18-28.67,13.07-42.39a48.781,48.781,0,0,1,5.88-3.54C417.81,366.43,417.91,386.27,417.98,407.42Z" fill="#d03b02"/>
      </g>
      <g id="Calque_26" data-name="Calque 26">
        <path id="Path_6" data-name="Path 6" d="M400.74,331.47c-6.05,3.82-13.9,1.71-17.01.66-.16-27.67-.27-46.22-.36-56.2a42.081,42.081,0,0,1,13.53,9.88,39.578,39.578,0,0,1,9.66,19.62C407.41,310.29,410.07,325.56,400.74,331.47Z" fill="#d03b02"/>
      </g>
      <g id="Calque_25" data-name="Calque 25">
        <path id="Path_7" data-name="Path 7" d="M434.19,182.58c-.27.23-.54.47-.81.71a52.749,52.749,0,0,0-12.42,16.8,47.18,47.18,0,0,0-4.46,20.23v.2c.02,2.2.19,19.4.42,42.54a56.088,56.088,0,0,1-16.72-15.43c-2.06-2.94-12.75-18.9-6.77-38.24,1.92-6.23,5.65-18.29,19.1-24.18C420.66,181.65,428.87,181.86,434.19,182.58Z" fill="#d03b02"/>
      </g>
      <g id="Calque_24" data-name="Calque 24">
        <path id="Path_8" data-name="Path 8" d="M465.04,144.21c-9.81,2.03-44.86,10.55-67.15,43a99.441,99.441,0,0,0-14.4,32.14,72.454,72.454,0,0,1,3.13-23.94c.34-1.07.71-2.11,1.07-3.09q.12-.36.27-.72l.27-.69a2.654,2.654,0,0,1,.16-.41c.14-.38.3-.77.47-1.16.08-.23.18-.45.28-.68s.18-.42.26-.61c.25-.58.51-1.17.79-1.77.25-.56.51-1.11.78-1.66.31-.64.63-1.28.96-1.91s.66-1.27,1-1.89a84,84,0,0,1,7-10.82,89.684,89.684,0,0,1,19.12-18.37,92.374,92.374,0,0,1,25.1-12.61c.31-.11.61-.2.9-.29.42-.14.84-.26,1.25-.39q.78-.24,1.56-.45a99.873,99.873,0,0,1,15.55-3.11C463.95,137.93,464.5,141.07,465.04,144.21Z" fill="#d03b02"/>
      </g>
      <g id="Calque_23" data-name="Calque 23">
        <path id="Path_9" data-name="Path 9" d="M417.844,55.5c7.107-.348,13.827.5,20.021,3.992,5.1,2.874,7.832,7.438,9.142,12.986.209.884.305,1.8.511,2.68a12.038,12.038,0,0,0,.611,1.527,20.245,20.245,0,0,0,5.541-6.172,20.74,20.74,0,0,0,2.794-11.046c-.144-4.129-.032-8.267-.032-12.485a8.282,8.282,0,0,1-2.552-5.921,7.759,7.759,0,0,1,13.758-4.793,7.622,7.622,0,0,1,.083,9.683,3.182,3.182,0,0,0-.909,2.24c.02,5.119-.068,10.241.035,15.358a8.693,8.693,0,0,0,5.759,8.282,9.1,9.1,0,0,0,12.423-8.44c.061-4.979,0-9.959.032-14.938a3.971,3.971,0,0,0-.958-2.472,7.684,7.684,0,0,1,.816-10.47c2.392-2.4,5.29-2.5,8.191-1.512,2.988,1.019,4.526,3.436,4.827,6.545a7.157,7.157,0,0,1-1.775,5.65,3.113,3.113,0,0,0-.7,1.863c-.055,4.7-.282,9.415.041,14.092.411,5.949,3.364,10.67,8.331,14.608.248-.929.459-1.55.578-2.189.792-4.259,2.11-8.277,5.142-11.54a19.665,19.665,0,0,1,6.618-4.734,37.742,37.742,0,0,1,17.05-2.835,7.849,7.849,0,0,1,1.025.213c.2,1.55.522,3.118.589,4.7.227,5.362-.242,10.642-2.46,15.615-2.54,5.693-7.135,9.02-12.919,10.852a47.555,47.555,0,0,1-11.993,1.826c-7.275.381-12.806,3.768-16.119,10.328-2.727,5.4-3.183,11.226-2.806,17.19a83.584,83.584,0,0,0,5.1,22.871c2.07,5.8.5,11.058-2.651,15.965a29.211,29.211,0,0,1-9.353,9.2c-3.6,2.216-7.16,2.427-10.892.255a28.576,28.576,0,0,1-12.1-13.8,16.429,16.429,0,0,1-.106-12.669,70.276,70.276,0,0,0,4.76-26.713c-.15-4.63-.879-9.127-3.17-13.139a17.759,17.759,0,0,0-12.938-9.134c-2.89-.476-5.862-.438-8.764-.863-5.7-.835-11.035-2.528-15.284-6.745-2.961-2.938-4.424-6.611-5.33-10.524a38.716,38.716,0,0,1-.406-14.2A6.742,6.742,0,0,1,417.844,55.5ZM441.4,82.135c.121-.568,1.831-9.309-4.574-15.542a17.2,17.2,0,0,0-13.178-4.565c-.159.736-1.711,8.614,4.011,14.823A17.319,17.319,0,0,0,441.4,82.135Zm68.86,0c.592.051,9.524.666,14.948-6.485A17.283,17.283,0,0,0,528.179,62.1c-.623-.041-9.7-.482-15.048,6.838A17.423,17.423,0,0,0,510.262,82.134Zm-24.475,55.541c.082-1.95-1.156-3.1-2.8-2.592-2.454.753-4.9,4.263-4.762,6.823.114,2.061,1.312,2.814,3.3,2.07C483.6,143.2,485.685,140.123,485.787,137.675Zm-12.163,4.043a8,8,0,0,0-4.33-6.459c-1.763-.739-3.038.019-3.237,1.924-.244,2.346,2.13,6.018,4.41,6.82C472.329,144.658,473.621,143.722,473.624,141.718Z" fill="#fbb24d" stroke="#fff" stroke-miterlimit="10" stroke-width="1.221"/>
      </g>
      <g id="Calque_22" data-name="Calque 22">
        <path id="Path_10" data-name="Path 10" d="M457.871,107.947c.516,9.591-1.767,18.293-4.933,27.3-1.991-2.476-4.14-4.346-5.495-6.875a6.622,6.622,0,0,1-.505-4.3c.6-3.65,1.2-7.3,1.814-11.033a19.3,19.3,0,0,1-2.025-1.45,6.93,6.93,0,0,1-1.414-1.989C449.723,111.092,453.78,110.258,457.871,107.947Z" fill="#d03b02" stroke="#fff" stroke-miterlimit="10" stroke-width="1.221"/>
      </g>
      <g id="Calque_21" data-name="Calque 21">
        <path id="Path_11" data-name="Path 11" d="M498.881,135.369c-3.2-9.183-5.359-17.968-4.942-27.18a35.506,35.506,0,0,0,6.08,1.947c2.011.281,4.12-.137,6.283-.253-.412,1.485-1.8,2.153-3.231,2.959.46,2.732.921,5.4,1.356,8.083.336,2.064.8,4.128.322,6.232a4.064,4.064,0,0,1-.52,1.576C502.571,130.871,500.84,132.953,498.881,135.369Z" fill="#d03b02" stroke="#fff" stroke-miterlimit="10" stroke-width="1.221"/>
      </g>
      <g id="Calque_20" data-name="Calque 20">
        <path id="Path_12" data-name="Path 12" d="M456.736,102.831c-2.556,2.856-5.564,3.84-9.034,2.8-3.386-1.015-3.549-4.123-4.063-7.164-2.345-.268-4.715-.009-7.533-.171,2.79-1.3,5.181-2.408,7.573-3.517a8.918,8.918,0,0,0,.954-.43c2.654-1.639,4.718-.529,6.961,1.116A13.952,13.952,0,0,1,456.736,102.831Z" fill="#fbb24d" stroke="#fff" stroke-miterlimit="10" stroke-width="1.221"/>
      </g>
      <g id="Calque_19" data-name="Calque 19">
        <path id="Path_13" data-name="Path 13" d="M495.093,102.934a13.264,13.264,0,0,1,8.272-9.228,3.232,3.232,0,0,1,2.219-.02,95.636,95.636,0,0,1,9.673,4.728H508.3c-.289,1.35-.447,2.525-.8,3.64-.82,2.6-2.4,3.685-5.083,3.932C499.5,106.254,497.328,104.881,495.093,102.934Z" fill="#fbb24d" stroke="#fff" stroke-miterlimit="10" stroke-width="1.221"/>
      </g>
      <g id="Calque_18" data-name="Calque 18">
        <path id="Path_14" data-name="Path 14" d="M492.509,150.707c-.512-.157-5.142-1.495-8.954,1.373a10.387,10.387,0,0,0-3.052,12.005,27.455,27.455,0,0,0,12.006-13.378Z" fill="#d03b02"/>
      </g>
      <g id="Calque_17" data-name="Calque 17">
        <path id="Path_15" data-name="Path 15" d="M459.4,150.707c.512-.157,5.142-1.495,8.953,1.373a10.384,10.384,0,0,1,3.052,12.005A27.46,27.46,0,0,1,459.4,150.707Z" fill="#d03b02"/>
      </g>
      <g id="Calque_16" data-name="Calque 16">
        <path id="Path_16" data-name="Path 16" d="M462.648,102.507a16.992,16.992,0,0,1,12.361-6.791c8.629-.461,13.745,6.284,14.117,6.791a43.99,43.99,0,0,0-1.069,16.482,17.9,17.9,0,0,1-24.417,0S464.937,109.375,462.648,102.507Z" fill="#d03b02"/>
      </g>
      <g id="Calque_15" data-name="Calque 15">
        <path id="Path_17" data-name="Path 17" d="M510.213,63.21a21.893,21.893,0,0,1,3.941-3.2A26.183,26.183,0,0,1,525.275,56.4a39.461,39.461,0,0,1,8.432-.286,35.548,35.548,0,0,1,.648,6.677,32.837,32.837,0,0,1-1.888,11.293,29.043,29.043,0,0,1-1.441,3.247l-4.816-2.064a17.641,17.641,0,0,0,2.48-13.735,18.791,18.791,0,0,0-6.563.648,19.077,19.077,0,0,0-8.313,4.939Z" fill="#da4008"/>
      </g>
      <g id="Calque_14" data-name="Calque 14">
        <path id="Path_18" data-name="Path 18" d="M441.676,63.21a23.015,23.015,0,0,0-2.091-1.869c-7.313-5.771-16.474-5.713-21.5-5.208a43.947,43.947,0,0,0-.483,7.138,31.546,31.546,0,0,0,1.017,8.486,27.726,27.726,0,0,0,2.213,5.589l4.769-2.079a18.138,18.138,0,0,1-2.327-5.342,18.346,18.346,0,0,1-.117-8.451,17.725,17.725,0,0,1,6.946.592,17.94,17.94,0,0,1,8.088,5.036Z" fill="#d03b02"/>
      </g>
      <g id="Calque_13" data-name="Calque 13">
        <path id="Path_19" data-name="Path 19" d="M625.582,134.971c-11.3,1.5-24.5,10.2-31.3,20.9-7.6,11.9-11.7,28.7-12.8,52.8l-.7,15.7-5.5.8c-9.4,1.3-14.5,6.7-13.7,14.5.8,7.9,7.6,12.6,16.5,11.5l5.1-.6.6,3.9c3.9,24.3,9.5,46.5,13.6,54.5,3.6,7.2,13.8,9.4,19.8,4.3,5.4-4.5,5.7-8.4,1.6-21.5-5.1-16.2-10.7-44.9-8.7-44.9,1.8,0,43.9-6,51.9-7.4,4.5-.8,9.5-2.2,11.2-3.1,8.8-4.5,7.8-19.2-1.5-23.1-3.3-1.4-4.7-1.3-15.8.5-12.5,2.2-46,7.1-47.8,7.1-1.6,0-.2-22.6,2.1-33.6,3.7-18.1,10.7-26.4,22.1-26.4,10.1,0,16.7,5.8,21,18.2,2.9,8.5,6.6,11.8,13.2,11.8,12.2,0,16.1-11.2,9.4-26.5C666.682,143.771,646.782,132.171,625.582,134.971Z" fill="#d03b02" stroke="#d03b02" stroke-miterlimit="10" stroke-width="5.378" fill-rule="evenodd"/>
      </g>
      <g id="Calque_12" data-name="Calque 12">
        <path id="Path_20" data-name="Path 20" d="M523.182,194.371c-3.1,1.7-5.9,5.7-5.9,8.4,0,3.1-1.4,3.2-5.5.4-5.8-3.9-14.6-6.3-23.4-6.3-41.2,0-67.8,47.7-48.5,86.9,10,20.2,34.3,33.5,55.4,30.2,8.7-1.3,17.9-5.4,23.4-10.2,3.7-3.2,3.9-3.3,5-1.4a39.22,39.22,0,0,0,5.1,6.1c10.4,10.7,25.5,6.2,25.5-7.6,0-3.3-.7-4.8-4-8.4a18.66,18.66,0,0,1-5-9.2c-2-10-3-27.6-3-55.3v-28.3l-3.4-3.4c-3-3-4-3.4-8.2-3.4C527.982,192.971,524.582,193.571,523.182,194.371Zm-27.2,29.6c10,3.7,16.3,18.9,15,36.2-.8,11-3.1,17.1-8.2,22.2-7.3,7.3-17.8,8-28.1,2-17.6-10.3-20.4-36.3-5.8-52.5C475.782,224.271,487.682,220.771,495.982,223.971Z" fill="#d03b02" stroke="#d03b02" stroke-miterlimit="10" stroke-width="5.378" fill-rule="evenodd"/>
      </g>
      <g id="Calque_11" data-name="Calque 11">
        <path id="Path_21" data-name="Path 21" d="M773.782,196.371c-2.1,2.1-3.5,4.6-3.5,6,0,3.5-1.2,3.7-5.5.8-5.8-4-14.6-6.3-23.5-6.3-23.1,0-44.1,16.1-51.6,39.5-11.6,36.5,9.2,71.9,45.7,77.6,12.5,1.9,27.3-2.2,36.4-10.2,3.6-3.2,3.8-3.3,4.9-1.4a39.22,39.22,0,0,0,5.1,6.1c10.4,10.7,25.5,6.2,25.5-7.6,0-3.3-.7-4.8-4-8.4a18.66,18.66,0,0,1-5-9.2c-2-10-3-27.6-3-55.3v-28.3l-3.4-3.4c-3.1-3.1-4-3.4-9-3.4S776.982,193.171,773.782,196.371Zm-20.8,30.1c8,6.4,12.1,19,11,33.8-.8,10.9-3.1,17-8.2,22.1-11.7,11.8-32.8,5.3-40.9-12.4-2.9-6.5-2.8-19.4.3-27.2a34.155,34.155,0,0,1,15.4-17.4c4.4-2.2,6.2-2.6,11.9-2.3S749.782,223.871,752.982,226.471Z" fill="#d03b02" stroke="#d03b02" stroke-miterlimit="10" stroke-width="5.378" fill-rule="evenodd"/>
      </g>
      <g id="Calque_10" data-name="Calque 10">
        <path id="Path_22" data-name="Path 22" d="M130.782,194.971c-22.1,3.2-34.6,12.5-34.8,26-.1,5.4,1.9,9.1,6.6,11.9a12.743,12.743,0,0,0,17.5-4.5c2.1-3.7,2.8-4.2,7.2-5.5,9-2.7,41-3.6,41-1.2,0,.9-1.9,1.9-24.3,13.8-30.7,16.3-44.7,26.8-50.5,37.9-3.5,6.7-3.7,17-.5,23.1,4.4,8.2,13.9,14.1,27.5,17,10.3,2.2,38.7,1.4,51.3-1.5,31.1-7.2,46.9-18.3,48.2-34.1,1-10.6-9.6-18.2-18.7-13.5-3.5,1.8-7,6.1-7,8.6,0,2.4-5.9,6.3-13.5,8.9-18.9,6.5-43.3,8.5-58.3,4.8-5.6-1.4-5.3-3,2-8.8,5.4-4.3,12.7-8.6,44.9-26.1,24-13.2,33.4-21.7,35.8-32.7,3.7-17.5-12.7-25.4-52.4-25.1C143.982,194.071,134.082,194.471,130.782,194.971Z" fill="#d03b02" stroke="#d03b02" stroke-miterlimit="10" stroke-width="5.378" fill-rule="evenodd"/>
      </g>
      <g id="Calque_9" data-name="Calque 9">
        <path id="Path_23" data-name="Path 23" d="M325.682,201.271c-1.9,1.9-3.4,4.3-3.4,5.4,0,3.2-1.7,3.5-5,1.2-8.6-6.1-24-7.8-36.3-4-21.9,6.8-37.6,29.5-37.7,54.6,0,7.6,3.1,19.9,6.7,26.7,1.5,2.9,5.9,8.4,9.8,12.3,11.2,11.3,23.6,16.1,39.1,15.1a40.627,40.627,0,0,0,24.7-9.7c2.1-1.8,3.9-3.1,4-2.9.2.2,1.5,2.3,3,4.6,6.3,9.9,19.8,11.1,25.1,2.3,3-5.2,1.3-12.5-3.8-16.3-1-.7-2.4-4-3.2-7.2-2-8.8-3.5-39.5-2.7-59,.5-14.7.4-17.5-1-20.2-2.4-4.6-5.4-6.3-11-6.3C329.782,197.871,328.582,198.371,325.682,201.271Zm-22.6,26.7c9.2,4.5,13.7,15.8,13,32.5-.8,18.5-7.7,27.7-20.9,27.7-9.6,0-19.1-6.1-24.1-15.6-2-3.6-2.3-5.7-2.3-14.2,0-8.9.3-10.6,2.8-15.7,4.7-9.6,14.5-16.5,23.6-16.7C297.082,225.871,300.682,226.871,303.082,227.971Z" fill="#d03b02" stroke="#d03b02" stroke-miterlimit="10" stroke-width="5.378" fill-rule="evenodd"/>
      </g>
      <g id="Calque_8" data-name="Calque 8">
        <path id="Path_24" data-name="Path 24" d="M323.882,345.071c-6.1,6.1-14.6,17.8-14.6,20.3,0,.7,6.4,5.4,14.2,10.5l14.2,9.2,7.7-7.9c7.8-8.1,12.5-15,13.1-19.2.3-2.1-1.4-3.4-13-10.7-7.3-4.6-13.7-8.4-14.3-8.4C330.682,338.871,327.482,341.671,323.882,345.071Z" fill="#d03b02" stroke="#d03b02" stroke-miterlimit="10" stroke-width="5.378" fill-rule="evenodd"/>
        <path id="Path_25" data-name="Path 25" d="M732.484,375.571c-6.1,6.1-14.6,17.8-14.6,20.3,0,.7,6.4,5.4,14.2,10.5l14.2,9.2,7.7-7.9c7.8-8.1,12.5-15,13.1-19.2.3-2.1-1.4-3.4-13-10.7-7.3-4.6-13.7-8.4-14.3-8.4C739.284,369.371,736.084,372.171,732.484,375.571Z" fill="#d03b02" stroke="#d03b02" stroke-miterlimit="10" stroke-width="5.378" fill-rule="evenodd"/>
      </g>
      <g id="Calque_7" data-name="Calque 7">
        <path id="Path_26" data-name="Path 26" d="M174.282,342.371c-13.1,3.4-16.9,3.8-29.5,2.6-10.7-1-11-1-12.9,1.2-4,4.8-12.6,24.3-12.6,28.7,0,1,1.7,2.4,4.2,3.6,3.7,1.6,6.6,1.9,20.8,1.8,17.8,0,26.1-1.5,32.8-5.6,5-3.1,12.4-18.8,13-27.4.4-5.7.3-6.1-1.9-6.7C184.882,339.671,184.982,339.671,174.282,342.371Z" fill="#d03b02" stroke="#d03b02" stroke-miterlimit="10" stroke-width="5.378" fill-rule="evenodd"/>
      </g>
      <g id="Calque_5" data-name="Calque 5">
        <path id="Path_27" data-name="Path 27" d="M159.275,404.37c-25.89,3.7-49.448,18.8-60.3,38.6-4.342,8-6.674,15.6-7.8,26.1-1.206,10.4-.16,15.3,4.5,20.9,6.593,7.8,14.794,7.8,38.192-.2,14.874-5,21.548-6.1,26.533-4,2.171.9,4.181,2.1,4.422,2.6,1.206,2.3,3.055.1,8.2-9.9,9.166-17.6,9.407-18.1,7.879-20.2a22.471,22.471,0,0,0-5.467-4.2c-3.7-2-5.387-2.3-13.829-2.3-8.764.1-10.774.5-22.513,4.4-17.769,6-28.543,6.6-28.543,1.7,0-9.8,32.241-22.6,53.709-21.3,9.809.5,14.633,2.4,18.412,6.9,4.1,4.9,4.583,8,3.94,26.8-.884,25.3,1.367,35.7,9.005,42,6.111,5,7.96,5.2,63.438,4.7,46.072-.3,51.861-.5,56.926-2.2a52.058,52.058,0,0,0,18.734-10.4c7.8-7.2,21.789-36.4,23.4-48.9,1.367-10.8-.723-20.6-6.914-32.4-3.779-7.2-8.845-12.1-13.589-13.3-6.995-1.6-15.517,7.9-21.869,24.4-4.985,12.8-4.262,22.4,2.01,27.2,3.859,3,13.106,3.8,17.447,1.5,2.573-1.3,3.3-1.4,3.86-.4a22.83,22.83,0,0,1,1.286,9.4c-.4,2.7-4.9,6.1-12.221,9.2l-6.513,2.7H268.945c-52.342,0-52.664,0-55.88-2.1a20.14,20.14,0,0,1-4.583-4.1c-3.94-5.4-4.824-14.9-2.654-29,1.448-9.4,1.528-19.1.242-24.7-1.448-5.9-7.96-13.7-13.669-16.4C183.8,403.47,172.622,402.37,159.275,404.37Z" fill="#d03b02" stroke="#d03b02" stroke-miterlimit="10" stroke-width="5.378" fill-rule="evenodd"/>
      </g>
      <g id="Calque_4" data-name="Calque 4">
        <path id="Path_28" data-name="Path 28" d="M598.782,455.371c-6.2,9.7-19.1,16.8-46.7,25.5-38.7,12.3-58.6,19.1-65.4,22.4-11.9,5.7-22.4,14.9-28.7,24.8-6.8,10.8-9.7,33.8-4.3,33.8,1.6,0,9.8-5.7,21.7-15.2,9.9-7.9,22.4-16.5,27.4-19.1,6.4-3.2,23.8-8.6,39-12.2,27.2-6.3,35.5-9.8,45.5-19.1,7.5-7.2,13.7-17.2,18.8-30.8l3.4-9.1-3.3-2.7a14.189,14.189,0,0,0-4-2.8C601.882,450.871,600.282,452.871,598.782,455.371Z" fill="#d03b02" stroke="#d03b02" stroke-miterlimit="10" stroke-width="5.378" fill-rule="evenodd"/>
      </g>
      <g id="Calque_3" data-name="Calque 3">
        <path id="Path_29" data-name="Path 29" d="M758.282,453.871c-.7,1.7-3.5,5-6.2,7.5-9.7,8.7-18.8,12.6-55.6,24.1-47.6,14.8-57.2,19-69.3,30.2a52.18,52.18,0,0,0-14.7,21.5c-3.9,10.5-3.9,24.7.1,24.7.7,0,7.1-4.5,14.3-9.9,33.3-25.6,41.2-29.5,77.4-37.6,27.1-6,37.9-11.6,47.8-24.9,4.7-6.4,12.2-21.1,14.3-28.4,1.2-4.1,1.1-4.4-1.6-7.2C761.182,450.071,759.882,450.071,758.282,453.871Z" fill="#d03b02" stroke="#d03b02" stroke-miterlimit="10" stroke-width="5.378" fill-rule="evenodd"/>
      </g>
    </g>
  </g>
</svg>
